<svg width="383" height="269" viewBox="0 0 383 269" fill="none" xmlns="http://www.w3.org/2000/svg">
<path d="M195.606 268.43C207.125 268.43 216.464 259.123 216.464 247.642C216.464 236.162 207.125 226.855 195.606 226.855C184.086 226.855 174.748 236.162 174.748 247.642C174.748 259.123 184.086 268.43 195.606 268.43Z" fill="white"/>
<path d="M320.211 267.262C331.88 263.769 344.285 260.127 353.539 251.825C361.809 244.405 367.392 233.076 363.966 221.949C360.547 210.845 350.307 203.44 339.734 199.758C333.737 197.669 327.464 196.51 321.193 195.6C314.375 194.611 307.528 193.8 300.684 193.02C272.971 189.861 245.154 187.931 217.233 187.23C203.456 186.885 189.681 186.893 175.902 187.092C163.596 187.27 150.636 187.266 139.22 182.053C130.343 178 122.285 170.625 119.812 160.934C116.956 149.748 122.223 138.356 129.778 130.254C133.76 125.983 138.415 122.389 143.216 119.084C148.425 115.499 153.815 112.167 159.322 109.057C170.169 102.935 181.508 97.725 193.224 93.4808C199.003 91.3864 204.868 89.5796 210.784 87.9127C215.779 86.5051 220.79 85.0956 225.618 83.1779C234.951 79.4706 243.828 73.1909 246.201 62.8959C248.45 53.1386 244.658 42.5464 238.01 35.2979C230.319 26.912 218.722 23.2359 207.603 22.6411C195.121 21.9733 182.926 25.0868 171.194 29.0381C158.681 33.2526 146.438 38.0984 133.66 41.5121C120.99 44.8939 108.074 47.2866 95.0301 48.6687C88.6448 49.3463 82.0665 50.1115 75.6432 49.5927C70.2599 49.1579 64.9041 47.58 60.9367 43.7723C57.5348 40.5075 55.5083 36.0204 56.205 31.2852C56.3316 30.4252 57.6425 30.7908 57.5167 31.6456C56.6686 37.4097 60.6 42.7211 65.4445 45.4419C71.0435 48.5864 77.8567 48.5906 84.0903 48.231C97.6065 47.4174 111.031 45.4833 124.225 42.4486C137.19 39.4975 149.692 35.2786 162.179 30.7719C174.039 26.4917 186.164 22.3142 198.834 21.3871C209.828 20.5827 221.393 22.179 230.971 27.905C239.388 32.9374 245.578 41.3297 247.55 50.9602C249.477 60.3709 246.808 69.8429 239.66 76.41C232.26 83.2095 222.112 86.1165 212.656 88.7938C200.662 92.1896 188.925 96.1589 177.564 101.313C166.048 106.522 155.004 112.71 144.554 119.808C134.467 126.678 124.512 135.322 121.322 147.578C119.836 153.287 120.11 159.342 122.597 164.735C124.808 169.529 128.449 173.562 132.691 176.673C142.812 184.095 155.568 185.619 167.793 185.771C181.523 185.941 195.254 185.479 208.989 185.704C236.98 186.162 264.914 187.86 292.791 190.798C299.776 191.535 306.753 192.35 313.72 193.242C319.987 194.044 326.276 194.842 332.437 196.267C343.393 198.801 354.054 203.674 360.863 212.932C363.886 216.945 365.758 221.7 366.281 226.691C366.757 231.898 365.478 237.116 363.116 241.749C357.886 252.002 348.092 258.525 337.69 262.809C332.119 265.104 326.34 266.843 320.573 268.569C319.732 268.821 319.373 267.513 320.211 267.262L320.211 267.262Z" fill="#F2F2F2"/>
<path d="M57.0834 42.2529C63.0935 42.2529 67.9657 37.3971 67.9657 31.4072C67.9657 25.4173 63.0935 20.5616 57.0834 20.5616C51.0733 20.5616 46.2011 25.4173 46.2011 31.4072C46.2011 37.3971 51.0733 42.2529 57.0834 42.2529Z" fill="#F2F2F2"/>
<path d="M132.579 62.8144C138.589 62.8144 143.462 57.9586 143.462 51.9688C143.462 45.9789 138.589 41.1231 132.579 41.1231C126.569 41.1231 121.697 45.9789 121.697 51.9688C121.697 57.9586 126.569 62.8144 132.579 62.8144Z" fill="#F2F2F2"/>
<path d="M196.513 21.6913C202.523 21.6913 207.395 16.8355 207.395 10.8457C207.395 4.85576 202.523 0 196.513 0C190.503 0 185.63 4.85576 185.63 10.8457C185.63 16.8355 190.503 21.6913 196.513 21.6913Z" fill="#F2F2F2"/>
<path d="M236.414 67.7853C242.425 67.7853 247.297 62.9296 247.297 56.9397C247.297 50.9498 242.425 46.094 236.414 46.094C230.404 46.094 225.532 50.9498 225.532 56.9397C225.532 62.9296 230.404 67.7853 236.414 67.7853Z" fill="#F2F2F2"/>
<path d="M182.456 121.11C188.467 121.11 193.339 116.254 193.339 110.264C193.339 104.274 188.467 99.4185 182.456 99.4185C176.446 99.4185 171.574 104.274 171.574 110.264C171.574 116.254 176.446 121.11 182.456 121.11Z" fill="#F2F2F2"/>
<path d="M113.989 146.868C119.999 146.868 124.871 142.012 124.871 136.023C124.871 130.033 119.999 125.177 113.989 125.177C107.979 125.177 103.106 130.033 103.106 136.023C103.106 142.012 107.979 146.868 113.989 146.868Z" fill="#F2F2F2"/>
<path d="M186.537 187.088C192.547 187.088 197.42 182.232 197.42 176.242C197.42 170.252 192.547 165.396 186.537 165.396C180.527 165.396 175.655 170.252 175.655 176.242C175.655 182.232 180.527 187.088 186.537 187.088Z" fill="#F2F2F2"/>
<path d="M264.527 209.683C270.537 209.683 275.409 204.827 275.409 198.837C275.409 192.847 270.537 187.991 264.527 187.991C258.517 187.991 253.645 192.847 253.645 198.837C253.645 204.827 258.517 209.683 264.527 209.683Z" fill="#F2F2F2"/>
<path d="M355.666 204.712C361.676 204.712 366.548 199.856 366.548 193.866C366.548 187.876 361.676 183.02 355.666 183.02C349.656 183.02 344.784 187.876 344.784 193.866C344.784 199.856 349.656 204.712 355.666 204.712Z" fill="#F2F2F2"/>
<path d="M193.372 30.7309C160.774 30.9604 134.083 57.3614 133.62 89.8471C133.616 90.147 133.614 92.256 133.614 95.0142C133.614 99.0585 135.226 102.937 138.095 105.797C140.965 108.657 144.856 110.264 148.914 110.264H148.914C150.926 110.264 152.918 109.868 154.776 109.1C156.634 108.332 158.322 107.207 159.744 105.789C161.165 104.37 162.293 102.687 163.061 100.834C163.83 98.9812 164.224 96.9957 164.223 94.9909C164.221 93.1145 164.22 91.8159 164.22 91.7361C164.219 86.7155 165.529 81.7811 168.022 77.4183C170.515 73.0555 174.104 69.4145 178.437 66.8536C182.77 64.2927 187.698 62.9 192.734 62.8126C197.771 62.7252 202.744 63.946 207.164 66.355C211.584 68.764 215.298 72.2782 217.942 76.5518C220.586 80.8255 222.068 85.7115 222.242 90.7291C222.416 95.7467 221.277 100.723 218.936 105.169C216.596 109.615 213.134 113.376 208.892 116.084L208.897 116.091C208.897 116.091 187.12 130.063 180.481 149.231L180.486 149.233C179.319 153.159 178.727 157.234 178.73 161.329C178.73 163.013 178.829 177.743 179.021 189.698C179.088 193.824 180.78 197.757 183.731 200.65C186.682 203.544 190.656 205.165 194.796 205.164H194.796C196.876 205.164 198.936 204.753 200.856 203.957C202.777 203.161 204.52 201.994 205.986 200.523C207.453 199.053 208.613 197.308 209.4 195.389C210.187 193.47 210.585 191.415 210.573 189.342C210.506 178.393 210.47 165.644 210.47 164.718C210.47 152.949 221.862 141.222 231.22 133.574C241.997 124.768 249.751 112.768 252.866 99.2303C253.555 96.4432 253.935 93.5891 253.999 90.7194C253.999 82.8049 252.428 74.9687 249.375 67.6621C246.323 60.3556 241.851 53.7232 236.215 48.1471C230.579 42.571 223.893 38.1613 216.539 35.1722C209.186 32.1832 201.313 30.6737 193.372 30.7309Z" fill="white"/>
<path d="M284.957 123.367C292.469 123.367 298.56 117.298 298.56 109.81C298.56 102.323 292.469 96.2533 284.957 96.2533C277.444 96.2533 271.354 102.323 271.354 109.81C271.354 117.298 277.444 123.367 284.957 123.367Z" fill="#2F2E41"/>
<path d="M259.82 263.065H254.261L251.617 241.696H259.821L259.82 263.065Z" fill="#A0616A"/>
<path d="M250.291 261.482H261.011V268.21H243.541C243.541 267.326 243.715 266.451 244.054 265.635C244.394 264.819 244.891 264.077 245.518 263.453C246.144 262.828 246.889 262.332 247.707 261.994C248.526 261.656 249.404 261.482 250.291 261.482Z" fill="#2F2E41"/>
<path d="M302.896 263.065H297.337L294.692 241.696H302.897L302.896 263.065Z" fill="#A0616A"/>
<path d="M293.366 261.482H304.087V268.21H286.616C286.616 267.326 286.791 266.451 287.13 265.635C287.469 264.819 287.966 264.077 288.593 263.453C289.22 262.828 289.964 262.332 290.783 261.994C291.602 261.656 292.48 261.482 293.366 261.482Z" fill="#2F2E41"/>
<path d="M282.89 123.447C289.04 123.447 294.026 118.477 294.026 112.347C294.026 106.218 289.04 101.248 282.89 101.248C276.739 101.248 271.753 106.218 271.753 112.347C271.753 118.477 276.739 123.447 282.89 123.447Z" fill="#A0616A"/>
<path d="M289.527 159.253L294.51 147.842C295.721 145.166 296.067 142.181 295.503 139.299C294.939 136.417 293.491 133.781 291.359 131.755C290.921 131.323 290.456 130.92 289.967 130.548C287.508 128.631 284.478 127.586 281.357 127.579C279.258 127.587 277.185 128.047 275.281 128.926C275.117 128.998 274.959 129.075 274.795 129.152C274.482 129.301 274.174 129.464 273.875 129.631C271.923 130.748 270.262 132.306 269.025 134.181C267.788 136.055 267.011 138.193 266.756 140.422L264.557 158.788C264.004 160.229 244.271 212.288 251.172 252.033C251.245 252.457 251.453 252.847 251.765 253.146C252.076 253.444 252.475 253.635 252.904 253.692L259.9 254.641C260.411 254.71 260.93 254.584 261.351 254.288C261.773 253.992 262.066 253.548 262.172 253.045L273.911 197.276C273.984 196.93 274.172 196.617 274.444 196.39C274.716 196.162 275.057 196.032 275.412 196.02C275.767 196.008 276.116 196.115 276.403 196.324C276.69 196.533 276.898 196.831 276.994 197.172L293.581 255.82C293.699 256.246 293.954 256.622 294.307 256.89C294.66 257.157 295.092 257.302 295.535 257.302C295.668 257.301 295.8 257.289 295.93 257.266L304.477 255.626C304.974 255.533 305.418 255.259 305.722 254.857C306.027 254.455 306.17 253.954 306.123 253.452C304.867 239.493 298.192 169.57 289.527 159.253Z" fill="#2F2E41"/>
<path d="M239.61 121.584C239.532 122.244 239.601 122.913 239.811 123.543C240.021 124.174 240.368 124.751 240.826 125.233C241.284 125.716 241.842 126.093 242.462 126.337C243.082 126.581 243.748 126.687 244.413 126.647L250.638 141.556L255.347 134.6L248.714 121.508C248.572 120.399 248.027 119.379 247.182 118.644C246.337 117.908 245.25 117.507 244.128 117.516C243.006 117.525 241.926 117.945 241.093 118.694C240.26 119.444 239.732 120.472 239.61 121.584L239.61 121.584Z" fill="#A0616A"/>
<path d="M282.272 174.265C282.934 174.187 283.57 173.964 284.137 173.613C284.703 173.263 285.185 172.793 285.549 172.237C285.914 171.68 286.151 171.051 286.245 170.393C286.339 169.736 286.287 169.065 286.093 168.43L299.19 158.923L291.305 155.98L280.076 165.459C279.027 165.855 278.159 166.621 277.638 167.611C277.117 168.602 276.979 169.749 277.249 170.834C277.52 171.92 278.181 172.869 279.107 173.501C280.032 174.133 281.158 174.405 282.272 174.265Z" fill="#A0616A"/>
<path d="M260.921 151.496C260.419 151.496 259.918 151.446 259.425 151.349C258.234 151.123 257.117 150.609 256.172 149.851C255.227 149.093 254.484 148.115 254.008 147.004L245.286 136.405C245.102 136.181 244.968 135.92 244.893 135.64C244.818 135.36 244.804 135.068 244.851 134.782C244.899 134.496 245.008 134.223 245.169 133.983C245.331 133.742 245.543 133.539 245.79 133.386L251.995 129.558C252.224 129.417 252.479 129.322 252.745 129.279C253.011 129.237 253.283 129.247 253.545 129.31C253.807 129.372 254.054 129.486 254.272 129.644C254.489 129.802 254.673 130.002 254.813 130.232L260.96 140.324L272.732 131.654C273.669 131.164 274.752 131.027 275.782 131.267C276.813 131.507 277.722 132.109 278.344 132.962C278.967 133.815 279.26 134.863 279.171 135.914C279.082 136.965 278.617 137.949 277.86 138.686L266.111 149.368C264.73 150.732 262.865 151.497 260.921 151.496Z" fill="#2F2E41"/>
<path d="M292.729 167.436C292.713 167.436 292.697 167.436 292.681 167.435C292.395 167.428 292.113 167.362 291.855 167.239C291.596 167.117 291.366 166.942 291.18 166.726L285.663 160.312C285.475 160.093 285.336 159.838 285.255 159.562C285.173 159.286 285.152 158.995 285.191 158.71C285.23 158.425 285.33 158.152 285.483 157.908C285.637 157.664 285.84 157.456 286.081 157.296L296.41 150.433L287.052 139.22C286.508 138.316 286.308 137.246 286.49 136.207C286.671 135.168 287.222 134.229 288.041 133.561C288.86 132.893 289.892 132.541 290.95 132.569C292.008 132.597 293.021 133.004 293.803 133.715L305.176 144.792C306.071 145.607 306.755 146.626 307.168 147.763C307.58 148.899 307.71 150.118 307.547 151.315C307.383 152.512 306.93 153.652 306.227 154.636C305.523 155.621 304.591 156.42 303.51 156.967L294.214 166.797C294.023 166.999 293.793 167.159 293.537 167.269C293.282 167.379 293.007 167.436 292.729 167.436Z" fill="#2F2E41"/>
<path d="M280.058 143.802C279.969 143.802 279.881 143.796 279.793 143.785C279.409 143.738 279.046 143.583 278.748 143.337C278.45 143.091 278.229 142.766 278.111 142.398L273.965 129.732C273.861 129.411 273.877 129.065 274.01 128.755C274.143 128.446 274.384 128.195 274.688 128.049L274.822 127.985C274.944 127.927 275.065 127.87 275.189 127.816C277.122 126.922 279.226 126.456 281.357 126.449C284.123 126.454 286.827 127.264 289.138 128.78C289.448 128.985 289.664 129.304 289.741 129.667C289.817 130.03 289.747 130.408 289.547 130.72L281.77 142.862C281.588 143.15 281.335 143.388 281.036 143.552C280.736 143.716 280.4 143.802 280.058 143.802Z" fill="#E6E6E6"/>
<path d="M295.681 103.758C298.14 103.758 300.132 101.772 300.132 99.3219C300.132 96.8718 298.14 94.8857 295.681 94.8857C293.223 94.8857 291.23 96.8718 291.23 99.3219C291.23 101.772 293.223 103.758 295.681 103.758Z" fill="#2F2E41"/>
<path d="M280.422 94.4457C277.296 94.4457 274.297 95.6836 272.086 97.8871C269.875 100.091 268.633 103.079 268.633 106.195V111.166H274.768L277.702 106.195L278.582 111.166H297.199L292.212 106.195C292.212 103.079 290.97 100.091 288.759 97.8871C286.548 95.6836 283.549 94.4457 280.422 94.4457Z" fill="#2F2E41"/>
<path d="M297.969 96.2832C298.461 94.7492 299.48 93.4373 300.847 92.5781C302.214 91.7188 303.841 91.3674 305.442 91.5854C308.279 92.058 310.521 94.3305 311.858 96.8686C313.194 99.4067 313.811 102.247 314.71 104.97C315.608 107.693 316.882 110.431 319.15 112.193C321.418 113.956 324.898 114.434 327.126 112.621C326.871 114.511 326.027 116.273 324.713 117.658C323.398 119.043 321.68 119.982 319.801 120.341C317.922 120.699 315.978 120.461 314.243 119.658C312.508 118.855 311.07 117.528 310.132 115.866C308.957 113.782 308.654 111.34 308.305 108.974C307.957 106.609 307.504 104.162 306.101 102.223C304.697 100.284 302.071 99.0173 299.842 99.9005L297.969 96.2832Z" fill="#2F2E41"/>
<path d="M153.235 103.051C149.177 103.051 145.285 101.444 142.416 98.5839C139.546 95.724 137.934 91.8454 137.934 87.8011C137.934 85.0428 137.936 82.9339 137.94 82.634C138.069 73.1863 140.456 63.9053 144.904 55.5611C137.597 65.5314 133.578 77.5186 133.406 89.8644C133.402 90.1644 133.4 92.2733 133.4 95.0316C133.4 99.0759 135.012 102.954 137.881 105.814C140.751 108.674 144.642 110.281 148.7 110.281C152.035 110.28 155.278 109.194 157.937 107.189C160.595 105.183 162.525 102.367 163.431 99.1689C160.63 101.673 156.998 103.056 153.235 103.051Z" fill="#3F3D56"/>
<path d="M194.409 62.8638C199.1 63.0871 203.667 64.4417 207.717 66.8115C211.767 69.1813 215.18 72.4954 217.662 76.4691C220.144 80.4429 221.621 84.9577 221.967 89.6258C222.312 94.2939 221.516 98.9759 219.646 103.27C222.351 100.104 224.339 96.3942 225.474 92.3933C226.61 88.3925 226.867 84.1946 226.227 80.0859C225.587 75.9772 224.066 72.0543 221.767 68.5846C219.469 65.1149 216.446 62.18 212.906 59.98C209.366 57.7801 205.392 56.3667 201.254 55.8363C197.116 55.3059 192.912 55.671 188.928 56.9067C184.945 58.1423 181.276 60.2195 178.171 62.9965C175.066 65.7736 172.598 69.1852 170.936 72.9989C173.809 69.631 177.419 66.9657 181.489 65.2085C185.558 63.4512 189.979 62.649 194.409 62.8638Z" fill="#3F3D56"/>
<path d="M199.116 197.95C194.977 197.951 191.002 196.33 188.051 193.437C185.1 190.544 183.409 186.61 183.341 182.485C183.149 170.53 183.05 155.799 183.05 154.116C183.047 150.021 183.639 145.946 184.806 142.019L184.801 142.018C185.49 140.047 186.323 138.129 187.292 136.279C184.317 140.23 181.949 144.601 180.267 149.249L180.272 149.25C179.105 153.177 178.513 157.251 178.516 161.346C178.516 163.03 178.615 177.76 178.807 189.716C178.874 193.841 180.566 197.774 183.517 200.668C186.468 203.561 190.442 205.182 194.582 205.181C197.995 205.18 201.316 204.077 204.047 202.036C206.777 199.995 208.771 197.127 209.727 193.861C206.827 196.497 203.041 197.956 199.116 197.95Z" fill="#3F3D56"/>
</svg>
