<svg width="570" height="330" viewBox="0 0 570 330" fill="none" xmlns="http://www.w3.org/2000/svg">
<path d="M570 237.755H426.757V238.945H570V237.755Z" fill="#3F3D56"/>
<path d="M458.701 227.061L462.861 249.081L471.777 251.461L469.399 225.275L458.701 227.061Z" fill="#A0616A"/>
<path d="M508.628 227.061L512.789 249.081L521.704 251.461L519.327 225.275L508.628 227.061Z" fill="#A0616A"/>
<path d="M468.211 244.915C468.211 244.915 458.701 244.32 458.701 247.296C458.701 250.271 453.946 260.388 453.946 260.388C453.946 260.388 450.38 272.291 459.89 271.101C469.4 269.911 475.343 259.198 475.343 259.198L472.966 247.891L468.211 244.915Z" fill="#2F2E41"/>
<path d="M515.843 246.012C515.843 246.012 509.499 241.929 509.952 244.651C510.405 247.373 510.859 254.632 514.03 255.086C517.202 255.54 526.717 258.262 527.171 259.169C527.624 260.077 538.498 263.706 538.498 257.808C538.498 251.91 531.702 247.373 531.702 247.373L523.999 241.475C523.999 241.475 519.015 241.022 518.108 244.197C517.202 247.373 515.843 246.012 515.843 246.012Z" fill="#2F2E41"/>
<path d="M455.584 101.767C455.584 101.767 445.479 86.8891 441.913 91.6501C438.347 96.4112 450.829 105.338 450.829 105.338L455.584 101.767Z" fill="#A0616A"/>
<path d="M459.15 116.05C458.556 115.455 447.857 105.338 447.857 105.338L455.584 99.982L464.499 108.909L459.15 116.05Z" fill="#575A89"/>
<path d="M460.636 69.9279C460.636 69.9279 452.909 70.523 453.503 77.0694C454.098 83.6159 459.15 105.338 459.15 105.338L462.122 111.289C462.122 111.289 473.118 77.0694 460.636 69.9279Z" fill="#575A89"/>
<path d="M461.23 49.0983L463.37 56.2399H490.176L490.949 48.5032L493.267 56.2399H496.714L497.487 48.5032L499.805 56.2399H503.431L500.022 48.017C498.438 44.0861 497.234 40.0122 496.428 35.8512C495.364 30.6842 492.553 26.0427 488.469 22.7099C484.385 19.377 479.278 17.5568 474.009 17.5564V17.5564C473.693 17.5564 473.379 17.5627 473.066 17.5755C458.041 18.1854 448.419 33.9394 454.184 47.8452L457.664 56.2399H460.517L461.23 49.0983Z" fill="#2F2E41"/>
<path d="M460.933 111.289C460.933 111.289 442.508 126.763 447.857 147.592C453.206 168.422 454.989 233.886 454.989 233.886L473.415 232.101V149.973L498.973 198.774L503.133 233.886L523.936 230.316L514.426 187.466L496.138 132.846L494.218 117.088L460.933 111.289Z" fill="#2F2E41"/>
<path d="M473.712 49.6934C480.606 49.6934 486.194 44.098 486.194 37.1957C486.194 30.2934 480.606 24.6979 473.712 24.6979C466.819 24.6979 461.23 30.2934 461.23 37.1957C461.23 44.098 466.819 49.6934 473.712 49.6934Z" fill="#A0616A"/>
<path d="M466.283 45.8251C466.283 45.8251 471.632 65.4644 468.66 67.8449C465.688 70.2254 489.463 60.1082 489.463 60.1082C489.463 60.1082 479.359 48.8007 480.548 44.0397L466.283 45.8251Z" fill="#A0616A"/>
<path d="M488.274 55.9423C488.274 55.9423 478.758 64.1385 469.548 64.8014C469.548 64.8014 457.367 71.4157 457.961 72.0108C458.556 72.6059 460.339 80.9378 460.339 80.9378C460.339 80.9378 463.311 85.5329 463.311 95.2209C463.311 96.4112 459.15 113.075 459.15 113.075L494.218 117.836C494.218 117.836 503.728 86.8891 504.322 76.1767C504.917 65.4644 508.483 54.1569 503.134 53.5618C497.784 52.9666 488.274 55.9423 488.274 55.9423Z" fill="#575A89"/>
<path d="M501.945 55.9423C501.945 55.9423 506.105 52.3715 508.483 60.7033C510.86 69.0352 520.37 95.2209 517.993 100.577C515.615 105.933 501.35 129.739 501.35 129.739L494.218 124.977L508.483 98.1966L500.161 79.1524L501.945 55.9423Z" fill="#575A89"/>
<path d="M497.19 124.382C497.19 124.382 478.764 135.69 484.708 138.07C490.651 140.451 500.756 127.953 500.756 127.953L497.19 124.382Z" fill="#A0616A"/>
<path d="M460.042 22.9125V35.4103H464.796L466.58 30.0541L467.025 35.4103H480.25L482.033 30.0541L482.479 35.4103H487.977V22.9125H460.042Z" fill="#2F2E41"/>
<path opacity="0.2" d="M460.042 81.8305C460.042 81.8305 458.853 93.7331 460.636 96.1136C462.419 98.4941 460.042 81.8305 460.042 81.8305Z" fill="black"/>
<path d="M357.216 289.531H105.203V290.721H357.216V289.531Z" fill="#3F3D56"/>
<path d="M341.887 199.137L268.768 272.35C257.589 283.541 242.429 289.829 226.621 289.829C210.813 289.829 195.653 283.541 184.474 272.35C183.488 271.362 182.537 270.344 181.633 269.297C180.144 267.594 178.757 265.806 177.479 263.94C172.789 257.148 169.581 249.442 168.064 241.326C167.725 239.558 167.469 237.773 167.297 235.969C167.113 234.047 167.02 232.107 167.018 230.149C167.012 224.673 167.756 219.223 169.229 213.949C169.734 212.134 170.326 210.349 171.006 208.593C174.008 200.846 178.595 193.814 184.474 187.948L216.374 156.008C218.046 154.334 220.313 153.393 222.677 153.393C225.041 153.393 227.309 154.334 228.981 156.008C230.652 157.681 231.591 159.952 231.591 162.319C231.591 164.686 230.652 166.956 228.981 168.63L197.081 200.571C194.67 202.981 192.561 205.675 190.798 208.593C186.884 215.099 184.826 222.554 184.849 230.149C184.849 232.096 184.982 234.041 185.247 235.969C185.495 237.778 185.864 239.567 186.352 241.326C188.3 248.376 192.06 254.791 197.258 259.931C202.456 265.071 208.909 268.757 215.974 270.619C223.039 272.481 230.468 272.455 237.52 270.544C244.571 268.633 250.999 264.903 256.161 259.727L274.539 241.326L307.229 208.593L329.28 186.514C336.214 179.553 340.481 170.372 341.336 160.578C342.191 150.784 339.58 141.001 333.958 132.94C332.634 130.997 332.13 128.61 332.554 126.297C332.978 123.983 334.296 121.931 336.223 120.585C338.149 119.239 340.528 118.709 342.843 119.109C345.158 119.509 347.221 120.807 348.585 122.722C356.596 134.223 360.314 148.178 359.09 162.147C357.865 176.115 351.776 189.208 341.887 199.137V199.137Z" fill="#3F3D56"/>
<path d="M456.475 59.6797C456.475 60.1201 456.47 60.5605 456.458 61.0009C456.304 68.7914 454.622 76.4756 451.507 83.6159C450.708 85.4465 449.816 87.2343 448.832 88.972C446.161 93.7008 442.86 98.0435 439.019 101.88L407.119 133.821C405.447 135.491 403.18 136.428 400.818 136.426C398.456 136.425 396.192 135.484 394.521 133.812C392.851 132.14 391.912 129.872 391.911 127.507C391.909 125.142 392.845 122.873 394.512 121.198L426.412 89.2577C426.507 89.1625 426.602 89.0673 426.692 88.972C434.053 81.4911 438.314 71.4983 438.621 61.0009C438.638 60.5605 438.644 60.1201 438.644 59.6797C438.644 58.3228 438.581 56.9778 438.454 55.6447C437.523 45.9889 433.266 36.9582 426.412 30.1017C425.776 29.4649 425.128 28.8519 424.457 28.2687C416.831 21.5562 407.025 17.8539 396.872 17.8539C386.719 17.8539 376.913 21.5562 369.287 28.2687C368.616 28.8519 367.968 29.4649 367.332 30.1017L294.213 103.315C286.391 111.166 281.998 121.803 281.998 132.893C281.998 143.982 286.391 154.619 294.213 162.471C295.884 164.145 296.824 166.415 296.824 168.782C296.824 171.149 295.884 173.42 294.213 175.093C292.541 176.767 290.274 177.708 287.909 177.708C285.545 177.708 283.278 176.767 281.606 175.093C270.445 163.892 264.176 148.716 264.176 132.893C264.176 117.07 270.445 101.893 281.606 90.692L354.725 17.479C361.087 11.1227 368.8 6.28744 377.289 3.33407C385.778 0.38071 394.824 -0.614408 403.751 0.423005C412.678 1.46042 421.256 4.50357 428.844 9.32525C436.431 14.1469 442.834 20.6226 447.572 28.2687C448.651 30.0001 449.637 31.7881 450.526 33.6249C453.869 40.5187 455.843 47.9971 456.339 55.6447C456.428 56.9838 456.473 58.3288 456.475 59.6797Z" fill="#3F3D56"/>
<path d="M74.4838 313.435C71.7609 323.513 62.4345 329.755 62.4345 329.755C62.4345 329.755 57.5227 319.657 60.2456 309.578C62.9685 299.5 72.2949 293.258 72.2949 293.258C72.2949 293.258 77.2066 303.357 74.4838 313.435Z" fill="#D00000"/>
<path d="M49.7134 313.435C52.4362 323.513 61.7626 329.755 61.7626 329.755C61.7626 329.755 66.6744 319.657 63.9516 309.578C61.2287 299.5 51.9023 293.258 51.9023 293.258C51.9023 293.258 46.9905 303.357 49.7134 313.435Z" fill="#D00000"/>
<path d="M53.7142 311.269C61.1858 318.552 62.0984 329.747 62.0984 329.747C62.0984 329.747 50.8972 329.134 43.4257 321.852C35.9541 314.569 35.0415 303.374 35.0415 303.374C35.0415 303.374 46.2427 303.986 53.7142 311.269Z" fill="#3F3D56"/>
<path d="M70.4828 311.269C63.0112 318.552 62.0986 329.747 62.0986 329.747C62.0986 329.747 73.2998 329.134 80.7714 321.852C88.243 314.569 89.1556 303.374 89.1556 303.374C89.1556 303.374 77.9544 303.986 70.4828 311.269Z" fill="#3F3D56"/>
<path d="M405.954 58.6204C405.954 59.4198 405.874 60.2173 405.716 61.0009C405.168 63.6891 403.709 66.1051 401.586 67.8402C399.463 69.5753 396.807 70.523 394.067 70.523C391.326 70.523 388.67 69.5753 386.547 67.8402C384.425 66.1051 382.966 63.6891 382.417 61.0009C382.059 59.228 382.106 57.397 382.554 55.6447C383.275 52.837 384.994 50.3892 387.39 48.7609C389.785 47.1326 392.692 46.4356 395.564 46.8009C398.437 47.1661 401.077 48.5684 402.99 50.7446C404.903 52.9208 405.957 55.7213 405.954 58.6204V58.6204Z" fill="#3F3D56"/>
<path d="M230.615 238.945C230.615 239.744 230.535 240.542 230.377 241.326C229.829 244.014 228.37 246.43 226.247 248.165C224.124 249.9 221.468 250.848 218.728 250.848C215.987 250.848 213.331 249.9 211.209 248.165C209.086 246.43 207.627 244.014 207.078 241.326C206.72 239.553 206.767 237.722 207.215 235.969C207.936 233.162 209.655 230.714 212.051 229.085C214.446 227.457 217.353 226.76 220.225 227.125C223.098 227.491 225.738 228.893 227.651 231.069C229.564 233.245 230.618 236.046 230.615 238.945V238.945Z" fill="#3F3D56"/>
<path d="M137.299 328.81H0V330H137.299V328.81Z" fill="#3F3D56"/>
<path d="M343.949 28.2687H369.287C368.616 28.8519 367.968 29.4649 367.332 30.1017L363.813 33.6249H338.6L343.949 28.2687Z" fill="#D00000"/>
<path d="M450.526 33.6249H429.557C428.576 32.392 427.526 31.2157 426.412 30.1017C425.777 29.4649 425.129 28.8519 424.457 28.2687H447.572C448.651 30.0001 449.637 31.7881 450.526 33.6249V33.6249Z" fill="#D00000"/>
<path d="M316.609 55.6447H341.822L336.472 61.0009H311.259L316.609 55.6447Z" fill="#D00000"/>
<path d="M405.58 55.6447C406.027 57.397 406.074 59.228 405.716 61.0009H382.417C382.059 59.228 382.106 57.397 382.554 55.6447H405.58Z" fill="#D00000"/>
<path d="M456.475 59.6797C456.475 60.1201 456.469 60.5605 456.458 61.0009H438.621C438.638 60.5605 438.644 60.1201 438.644 59.6797C438.644 58.3228 438.581 56.9778 438.454 55.6447H456.339C456.428 56.9838 456.473 58.3288 456.475 59.6797Z" fill="#D00000"/>
<path d="M288.673 83.6159H313.886L308.537 88.972H283.324L288.673 83.6159Z" fill="#D00000"/>
<path d="M451.506 83.6159C450.708 85.4465 449.815 87.2343 448.832 88.972H426.691C428.323 87.3154 429.813 85.5236 431.143 83.6159H451.506Z" fill="#D00000"/>
<path d="M190.798 208.593C189.765 210.311 188.857 212.101 188.082 213.949H169.229C169.734 212.134 170.326 210.349 171.006 208.593H190.798Z" fill="#D00000"/>
<path d="M332.442 208.593L327.093 213.949H301.88L307.229 208.593H332.442Z" fill="#D00000"/>
<path d="M186.352 241.326H168.064C167.725 239.558 167.469 237.773 167.297 235.969H185.247C185.495 237.778 185.864 239.567 186.352 241.326V241.326Z" fill="#D00000"/>
<path d="M230.615 238.945C230.615 239.744 230.535 240.542 230.377 241.326H207.078C206.72 239.553 206.767 237.722 207.215 235.969H230.241C230.489 236.942 230.615 237.941 230.615 238.945Z" fill="#D00000"/>
<path d="M305.102 235.969L299.752 241.326H274.539L279.888 235.969H305.102Z" fill="#D00000"/>
<path d="M211.857 269.297H181.633C180.144 267.594 178.757 265.806 177.479 263.94H201.99C205.021 266.167 208.34 267.968 211.857 269.297V269.297Z" fill="#D00000"/>
<path d="M277.166 263.94L271.817 269.297H241.385C244.902 267.968 248.221 266.167 251.252 263.94H277.166Z" fill="#D00000"/>
<path d="M187.58 101.014C183.035 93.326 174.045 92.9678 174.045 92.9678C174.045 92.9678 165.284 91.846 159.665 103.555C154.427 114.469 147.197 125.006 158.501 127.561L160.543 121.198L161.807 128.035C163.416 128.151 165.031 128.179 166.643 128.118C178.749 127.726 190.277 128.232 189.906 123.883C189.412 118.101 191.952 108.412 187.58 101.014Z" fill="#2F2E41"/>
<path d="M154.833 270.785L155.427 286.258H166.126L165.532 269.594L154.833 270.785Z" fill="#FBBEBE"/>
<path d="M183.957 161.28L182.875 164.881L168.86 211.498L167.315 216.628L168.504 271.38L153.644 273.165C153.644 273.165 153.211 267.416 152.575 258.929C151.297 242.123 149.204 214.562 147.992 199.565C147.546 194.019 147.225 190.192 147.106 189.252C146.512 184.491 154.239 160.685 154.239 160.685L169.692 159.495L183.957 161.28Z" fill="#2F2E41"/>
<path d="M158.399 284.473C158.399 284.473 154.239 279.711 153.644 283.282C153.05 286.853 145.918 300.541 145.918 300.541C145.918 300.541 125.115 314.229 142.946 315.419C142.946 315.419 151.861 314.229 154.833 309.468C154.833 309.468 159.588 306.492 160.777 306.492C161.966 306.492 169.098 304.112 167.909 300.541C166.72 296.97 167.315 283.877 167.315 283.877L158.399 284.473Z" fill="#2F2E41"/>
<path d="M157.805 256.501L163.154 266.619L171.476 262.453L166.126 250.55L157.805 256.501Z" fill="#FBBEBE"/>
<path opacity="0.2" d="M153.645 227.34C153.645 227.34 149.211 217.639 147.998 202.642C156.605 193.013 167.018 182.408 167.018 182.408L179.5 181.812L183.363 181.515C184.266 190.561 176.623 202.214 168.86 211.498C164.143 217.109 159.06 222.401 153.645 227.34V227.34Z" fill="black"/>
<path d="M169.098 182.11C169.098 182.11 131.058 215.437 136.408 229.125C141.757 242.813 156.616 259.477 156.616 259.477L168.096 252.616L157.211 227.34C157.211 227.34 161.774 223.288 167.329 217.284C176.369 207.513 188.033 192.573 186.929 181.515L186.335 161.28L176.23 162.471L169.098 182.11Z" fill="#2F2E41"/>
<path d="M165.532 264.238C165.532 264.238 161.371 264.238 161.965 267.809C162.56 271.38 163.748 277.331 163.748 277.331C163.748 277.331 158.993 305.302 170.287 298.756C181.58 292.209 178.608 274.95 178.608 274.95C178.608 274.95 182.768 264.238 177.419 263.048C172.07 261.858 170.287 260.667 169.692 261.262C169.098 261.858 165.532 264.238 165.532 264.238Z" fill="#2F2E41"/>
<path d="M173.853 118.431C179.762 118.431 184.552 113.635 184.552 107.719C184.552 101.802 179.762 97.0063 173.853 97.0063C167.944 97.0063 163.154 101.802 163.154 107.719C163.154 113.635 167.944 118.431 173.853 118.431Z" fill="#FBBEBE"/>
<path d="M169.692 111.885C169.692 111.885 174.447 124.382 172.664 124.977C170.881 125.573 167.315 128.548 167.315 128.548L173.259 133.904L188.712 125.573C188.712 125.573 181.58 116.05 182.174 111.885H169.692Z" fill="#FBBEBE"/>
<path d="M188.712 123.192C188.712 123.192 176.275 129.331 171.795 125.369C171.795 125.369 164.343 124.977 163.154 129.143C161.966 133.309 164.343 136.88 161.371 138.07C158.399 139.261 156.319 142.534 158.102 147.89C159.885 153.246 159.588 154.139 157.211 155.924C154.833 157.71 152.456 161.28 152.456 162.471C152.456 163.661 150.078 163.661 151.267 164.851C152.456 166.041 150.078 164.851 152.456 166.041C154.833 167.232 161.371 156.519 166.126 161.876C170.881 167.232 185.74 176.159 186.929 170.803C188.118 165.446 191.684 152.353 191.684 152.353C191.684 152.353 204.166 129.143 200.6 126.763C197.033 124.382 188.712 123.192 188.712 123.192Z" fill="#CFCCE0"/>
<path d="M186.929 164.851C186.929 164.851 180.391 163.661 178.608 167.827C176.825 171.993 166.721 181.515 173.259 182.11C179.797 182.705 184.552 171.993 184.552 171.993L191.09 170.803L186.929 164.851Z" fill="#FBBEBE"/>
<path d="M193.467 126.763L201.24 127.196C201.24 127.196 204.76 130.929 205.354 134.5C205.949 138.07 217.242 164.851 210.109 167.827C202.977 170.803 187.523 172.588 187.523 172.588L185.74 164.256L195.845 160.685L188.712 145.807L193.467 126.763Z" fill="#CFCCE0"/>
<path opacity="0.2" d="M158.102 227.638L167.879 252.111L156.319 227.638L166.424 216.925L158.102 227.638Z" fill="black"/>
<path opacity="0.2" d="M152.244 254.577L156.319 259.775H153.347L152.244 254.577Z" fill="black"/>
<path d="M175.145 99.5155C178.735 99.5155 181.646 96.6014 181.646 93.0067C181.646 89.412 178.735 86.4979 175.145 86.4979C171.555 86.4979 168.645 89.412 168.645 93.0067C168.645 96.6014 171.555 99.5155 175.145 99.5155Z" fill="#2F2E41"/>
<path d="M167.961 91.2939C167.961 89.6863 168.555 88.1357 169.629 86.9407C170.703 85.7457 172.18 84.9909 173.777 84.8216C173.55 84.7975 173.321 84.7853 173.093 84.785C172.238 84.7842 171.392 84.952 170.603 85.2787C169.814 85.6054 169.096 86.0847 168.492 86.6892C167.888 87.2937 167.408 88.0115 167.081 88.8016C166.754 89.5917 166.586 90.4386 166.586 91.2939C166.586 92.1491 166.754 92.996 167.081 93.7861C167.408 94.5762 167.888 95.294 168.492 95.8985C169.096 96.503 169.814 96.9823 170.603 97.309C171.392 97.6357 172.238 97.8035 173.093 97.8027C173.321 97.8024 173.55 97.7902 173.777 97.7661C172.18 97.5968 170.703 96.842 169.629 95.647C168.555 94.452 167.961 92.9014 167.961 91.2939V91.2939Z" fill="#2F2E41"/>
<path d="M185.57 100.273L176.688 95.6149L164.423 97.5205L161.885 108.743L168.202 108.499L169.967 104.376V108.432L172.882 108.319L174.573 101.755L175.631 108.743L185.993 108.531L185.57 100.273Z" fill="#2F2E41"/>
</svg>
