<svg width="566" height="370" viewBox="0 0 566 370" fill="none" xmlns="http://www.w3.org/2000/svg">
<g clip-path="url(#clip0)">
<path d="M489.749 304.475C489.455 315.458 487.616 326.345 484.287 336.815C484.213 337.058 484.131 337.297 484.051 337.54H463.669C463.69 337.322 463.713 337.079 463.734 336.815C465.093 321.182 457.329 227.167 447.961 210.896C448.782 212.216 491.329 254.801 489.749 304.475Z" fill="#F0F0F0"/>
<path d="M488.22 336.815C488.049 337.058 487.872 337.301 487.691 337.54H472.399C472.515 337.333 472.65 337.09 472.805 336.815C475.331 332.253 482.808 318.614 489.748 304.475C497.203 289.281 504.048 273.51 503.472 267.802C503.65 269.089 508.811 308.334 488.22 336.815Z" fill="#F0F0F0"/>
<path d="M539.516 319.413C539.355 325.434 538.347 331.403 536.522 337.142C536.481 337.276 536.436 337.407 536.393 337.54H525.219C525.231 337.421 525.243 337.287 525.255 337.142C526 328.572 521.743 277.032 516.607 268.112C517.057 268.835 540.383 292.181 539.516 319.413Z" fill="#F0F0F0"/>
<path d="M538.678 337.142C538.584 337.276 538.487 337.409 538.388 337.54H530.005C530.068 337.427 530.142 337.293 530.227 337.142C531.612 334.642 535.711 327.165 539.515 319.413C543.602 311.083 547.355 302.438 547.039 299.309C547.137 300.014 549.967 321.529 538.678 337.142Z" fill="#F0F0F0"/>
<path d="M433.963 319.413C433.802 325.434 432.794 331.403 430.969 337.142C430.928 337.276 430.884 337.407 430.84 337.54H419.666C419.678 337.421 419.69 337.287 419.702 337.142C420.447 328.572 416.191 277.032 411.055 268.112C411.505 268.835 434.83 292.181 433.963 319.413Z" fill="#F0F0F0"/>
<path d="M433.125 337.142C433.032 337.276 432.935 337.409 432.835 337.54H424.452C424.516 337.427 424.589 337.293 424.675 337.142C426.059 334.642 430.158 327.165 433.963 319.413C438.05 311.083 441.803 302.438 441.487 299.309C441.584 300.014 444.414 321.529 433.125 337.142Z" fill="#F0F0F0"/>
<path d="M232.197 326.535H242.941L248.053 285.066L232.195 285.067L232.197 326.535Z" fill="#FFB7B7"/>
<path d="M229.456 323.025L250.615 323.024H250.616C254.192 323.024 257.622 324.446 260.151 326.976C262.68 329.506 264.1 332.938 264.101 336.517V336.955L229.457 336.957L229.456 323.025Z" fill="#2F2E41"/>
<path d="M174.024 326.535H184.768L189.879 285.066L174.022 285.067L174.024 326.535Z" fill="#FFB7B7"/>
<path d="M171.283 323.025L192.442 323.024H192.443C196.019 323.024 199.449 324.446 201.978 326.976C204.506 329.506 205.927 332.938 205.927 336.517V336.955L171.283 336.957L171.283 323.025Z" fill="#2F2E41"/>
<path d="M169.646 138.589V248.08L172.416 318.764H195.27L202.888 185.712L218.123 240.458L227.82 317.378L255.521 315.992L236.823 138.589H169.646Z" fill="#2F2E41"/>
<path d="M196.213 40.1862C205.393 40.1862 212.834 32.7401 212.834 23.5548C212.834 14.3694 205.393 6.92325 196.213 6.92325C187.034 6.92325 179.592 14.3694 179.592 23.5548C179.592 32.7401 187.034 40.1862 196.213 40.1862Z" fill="#FFB8B8"/>
<path d="M189.307 44.5191L184.882 49.1952L180.727 142.748L229.897 141.361L218.124 59.5902L207.736 49.6287L202.465 44.5191H189.307Z" fill="#D00000"/>
<path d="M181.419 54.7388L185.151 48.6773L186.267 61.6686C186.267 61.6686 195.27 90.7737 194.577 116.414C193.885 142.054 198.04 202.343 192.5 203.036C186.959 203.729 163.413 205.115 163.413 200.264C163.413 195.414 162.028 66.5194 162.028 66.5194L181.419 54.7388Z" fill="#3F3D56"/>
<path d="M206.62 48.6773L216.046 56.1247L236.822 63.7475C236.822 63.7475 236.822 152.449 240.978 173.238C245.133 194.028 252.751 196.107 243.055 196.799C233.36 197.492 234.052 194.028 234.052 194.028C234.052 194.028 240.978 159.379 231.975 152.449C222.972 145.519 205.658 105.326 207.043 83.1509C208.428 60.9756 205.235 48.6773 206.62 48.6773Z" fill="#3F3D56"/>
<path d="M180.489 28.7582C180.489 28.7582 181.901 26.2766 181.573 17.9865C181.245 9.69642 193.86 14.3852 204.402 13.5943C214.944 12.8035 212.713 27.4349 212.713 27.4349C212.713 27.4349 213.473 26.5651 215.101 19.5036C216.73 12.4421 213.033 5.40499 213.033 5.40499C211.944 -2.01535 206.076 0.362878 206.076 0.362878C208.902 1.46372 208.359 3.81756 208.359 3.81756C205.967 -0.379166 200.099 1.99908 200.099 1.99908C192.272 -2.91529 184.34 3.55632 184.34 3.55632C174.886 5.70343 180.43 13.2271 180.43 13.2271C170.922 18.0352 180.489 28.7582 180.489 28.7582Z" fill="#2F2E41"/>
<path d="M163.436 190.244C164.141 189.499 164.673 188.609 164.997 187.635C165.32 186.662 165.426 185.63 165.308 184.611C165.189 183.592 164.849 182.612 164.311 181.739C163.772 180.866 163.05 180.122 162.193 179.559L165.187 163.809L156.066 159.654L152.15 181.955C151.3 183.458 151.03 185.22 151.392 186.909C151.754 188.597 152.722 190.094 154.114 191.116C155.505 192.138 157.222 192.613 158.94 192.452C160.659 192.292 162.258 191.506 163.436 190.244V190.244Z" fill="#FFB7B7"/>
<path d="M165.491 66.5194L163.652 65.5329C163.652 65.5329 153.718 69.2913 154.41 72.0633C155.103 74.8353 148.87 171.852 150.948 175.317C153.025 178.782 169.646 176.01 169.646 176.01L165.491 66.5194Z" fill="#3F3D56"/>
<path d="M244.55 183.712C243.749 183.072 243.098 182.264 242.644 181.345C242.189 180.426 241.941 179.418 241.918 178.392C241.894 177.367 242.096 176.349 242.508 175.41C242.92 174.471 243.533 173.634 244.304 172.958L239.161 157.774L247.62 152.396L254.582 173.94C255.631 175.311 256.142 177.019 256.017 178.742C255.892 180.464 255.14 182.08 253.903 183.285C252.667 184.489 251.032 185.198 249.308 185.277C247.584 185.356 245.891 184.799 244.55 183.712V183.712Z" fill="#FFB7B7"/>
<path d="M236.432 170.475C236.432 170.475 253.276 170.919 254.855 167.2C256.434 163.481 236.846 68.2597 237.148 65.4186C237.451 62.5774 227.092 60.2305 227.092 60.2305L225.408 61.4621L236.432 170.475Z" fill="#3F3D56"/>
<path d="M310.88 174.76L300.451 123.627L295.87 85.8604L285.721 92.43L287.123 134.049L303.322 177.17C302.801 178.162 302.587 179.287 302.707 180.401C302.827 181.515 303.275 182.569 303.995 183.427C304.715 184.286 305.673 184.911 306.749 185.223C307.825 185.535 308.969 185.52 310.036 185.18C311.103 184.839 312.045 184.189 312.742 183.312C313.438 182.434 313.859 181.37 313.949 180.253C314.04 179.136 313.796 178.017 313.25 177.039C312.703 176.061 311.878 175.267 310.88 174.76H310.88Z" fill="#FFB7B7"/>
<path d="M213.343 178.713L216.229 126.607L215.273 88.5749L228.69 93.598L230.93 134.978L221.17 179.998C221.83 180.904 222.205 181.986 222.248 183.106C222.291 184.225 222.001 185.333 221.414 186.287C220.826 187.241 219.969 187.999 218.95 188.464C217.931 188.93 216.797 189.081 215.692 188.9C214.587 188.718 213.56 188.212 212.743 187.445C211.927 186.679 211.356 185.687 211.104 184.595C210.852 183.503 210.931 182.36 211.329 181.313C211.728 180.266 212.429 179.361 213.343 178.713V178.713Z" fill="#FFB7B7"/>
<path d="M241.443 330.206H248.299L251.561 303.745L241.442 303.745L241.443 330.206Z" fill="#FFB7B7"/>
<path d="M239.694 327.966L253.196 327.966H253.196C255.478 327.966 257.667 328.873 259.28 330.487C260.894 332.102 261.801 334.292 261.801 336.575V336.855L239.695 336.856L239.694 327.966Z" fill="#2F2E41"/>
<path d="M267.411 327.17L274.186 328.219L281.453 302.568L271.453 301.021L267.411 327.17Z" fill="#FFB7B7"/>
<path d="M266.025 324.689L279.368 326.754L279.368 326.754C281.623 327.104 283.648 328.335 284.995 330.177C286.343 332.02 286.905 334.323 286.556 336.579L286.513 336.856L264.667 333.474L266.025 324.689Z" fill="#2F2E41"/>
<path d="M239.43 322.305L239.394 322.113L214.575 187.839C212.605 177.06 214.176 165.932 219.054 156.12L234.077 126.057L278.901 132.134L284.191 170.409L303.043 243.424L303.024 243.483L278.871 320.254L263.041 321.296L277.063 252.767L251.388 194.414L253.199 321.261L239.43 322.305Z" fill="#2F2E41"/>
<path d="M279.944 137.032L279.648 136.568C279.595 136.485 274.15 128.276 259.334 133.757C244.208 139.353 232.489 128.545 232.372 128.435L232.314 128.38L228.888 97.8304L224.845 73.0298L237.717 70.7701L244.045 66.9709L269.21 66.5226L275.832 71.7342L286.704 72.9198L287.699 95.5176L287.695 95.5422L279.944 137.032Z" fill="#D00000"/>
<path d="M283.55 97.7034V78.3536L286.608 72.7704L286.732 72.7666C289.139 72.8564 291.413 73.8906 293.064 75.6455C296.139 78.772 297.532 83.9809 297.205 91.1275L297.199 91.2582L283.55 97.7034Z" fill="#D00000"/>
<path d="M230.261 95.6002L214.679 93.7289L214.667 93.5494C214.135 85.7738 215.491 80.0019 218.698 76.3944C220.307 74.4651 222.59 73.2212 225.083 72.9154L225.173 72.9111L229.391 76.7483L230.261 95.6002Z" fill="#D00000"/>
<path d="M275.37 58.7258H234.365C233.522 58.7248 232.713 58.3891 232.117 57.7923C231.521 57.1955 231.185 56.3863 231.184 55.5423V40.6865C231.179 37.571 231.788 34.485 232.976 31.6052C234.163 28.7253 235.907 26.1081 238.107 23.9033C240.307 21.6985 242.919 19.9493 245.795 18.7558C248.671 17.5624 251.754 16.9481 254.868 16.9481C257.981 16.9481 261.064 17.5624 263.94 18.7558C266.816 19.9493 269.429 21.6985 271.629 23.9033C273.828 26.1081 275.572 28.7253 276.76 31.6052C277.948 34.485 278.557 37.571 278.551 40.6865V55.5423C278.55 56.3864 278.215 57.1955 277.618 57.7923C277.022 58.3891 276.213 58.7248 275.37 58.7258V58.7258Z" fill="#2F2E41"/>
<path d="M255.82 58.5795C265.41 58.5795 273.184 50.8005 273.184 41.2045C273.184 31.6085 265.41 23.8295 255.82 23.8295C246.23 23.8295 238.456 31.6085 238.456 41.2045C238.456 50.8005 246.23 58.5795 255.82 58.5795Z" fill="#FFB7B7"/>
<path d="M272.325 41.7476H249.4C248.969 41.7471 248.554 41.5894 248.231 41.3041C247.908 41.0189 247.7 40.6256 247.646 40.198L247.349 37.8222C247.321 37.5938 247.219 37.3808 247.059 37.2154C246.899 37.0501 246.689 36.9413 246.462 36.9055C246.235 36.8697 246.002 36.9088 245.799 37.017C245.596 37.1251 245.433 37.2965 245.336 37.5051L243.833 40.7272C243.69 41.0316 243.464 41.2891 243.18 41.4698C242.897 41.6504 242.568 41.7468 242.232 41.7476H238.75C238.503 41.7477 238.26 41.6962 238.034 41.5965C237.809 41.4968 237.607 41.351 237.441 41.1686C237.276 40.9862 237.15 40.7712 237.072 40.5373C236.995 40.3034 236.966 40.0558 236.99 39.8105L238.363 25.4596C238.392 25.1526 238.501 24.8584 238.678 24.6059C238.855 24.3535 239.095 24.1513 239.373 24.0192C249.872 19.1149 260.518 19.1211 271.017 24.0378C271.284 24.1631 271.515 24.3528 271.689 24.5898C271.864 24.8269 271.977 25.1037 272.017 25.3954L274.074 39.7276C274.11 39.9785 274.092 40.2343 274.021 40.4776C273.949 40.7208 273.827 40.9459 273.661 41.1375C273.495 41.3291 273.29 41.4827 273.059 41.588C272.829 41.6932 272.578 41.7477 272.325 41.7476H272.325Z" fill="#2F2E41"/>
<path d="M281.757 176.385C282.631 176.075 283.427 175.578 284.088 174.927C284.749 174.277 285.259 173.489 285.583 172.62C285.907 171.75 286.037 170.821 285.963 169.896C285.889 168.971 285.613 168.074 285.155 167.267L300.017 150.314L288.416 148.712L276.081 165.057C274.778 165.917 273.835 167.225 273.431 168.734C273.028 170.243 273.191 171.847 273.891 173.244C274.59 174.64 275.778 175.731 277.228 176.31C278.677 176.889 280.289 176.915 281.757 176.385V176.385Z" fill="#9F616A"/>
<path d="M299.681 326.634L289.316 326.633L284.384 286.626L299.684 286.627L299.681 326.634Z" fill="#9F616A"/>
<path d="M302.324 336.688L268.901 336.687V336.264C268.902 332.812 270.272 329.501 272.712 327.06C275.152 324.618 278.46 323.247 281.911 323.247H281.911L302.325 323.247L302.324 336.688Z" fill="#2F2E41"/>
<path d="M353.942 317.954L344.042 321.029L327.476 284.285L342.087 279.746L353.942 317.954Z" fill="#9F616A"/>
<path d="M359.446 326.772L327.526 336.688L327.4 336.284C326.377 332.987 326.705 329.418 328.312 326.363C329.918 323.308 332.672 321.016 335.967 319.992L335.967 319.992L355.463 313.935L359.446 326.772Z" fill="#2F2E41"/>
<path d="M291.743 142.185L276.392 159.778L288.41 160.86L291.743 142.185Z" fill="#E6E6E6"/>
<path d="M285.745 164.862C285.745 164.862 280.412 167.529 279.746 179.535C279.079 191.541 281.746 222.891 281.746 222.891C281.746 222.891 279.08 236.897 281.746 249.569C284.411 262.241 279.08 308.26 282.412 308.26C285.745 308.26 303.075 310.262 303.741 308.26C304.408 306.259 305.075 276.246 305.075 276.246C305.075 276.246 310.407 260.905 305.075 251.57C305.075 251.57 323.693 284.102 335.736 308.929C338.371 314.363 358.398 308.262 355.065 302.259C351.733 296.257 343.734 268.911 343.734 268.911C343.734 268.911 337.735 248.902 327.071 240.231L332.404 197.545C332.404 197.545 343.735 168.865 337.071 164.864C330.406 160.862 285.745 164.862 285.745 164.862Z" fill="#2F2E41"/>
<path d="M305.741 56.1448C315.312 56.1448 323.071 48.381 323.071 38.8038C323.071 29.2267 315.312 21.4628 305.741 21.4628C296.17 21.4628 288.411 29.2267 288.411 38.8038C288.411 48.381 296.17 56.1448 305.741 56.1448Z" fill="#A0616A"/>
<path d="M325.071 57.4789L303.527 70.1512C303.527 70.1512 295.277 74.7998 292.196 82.8234C288.911 91.3746 290.82 103.415 292.196 106.167C294.862 111.503 291.077 124.842 291.077 124.842L287.745 155.523C287.745 155.523 275.747 166.861 285.079 168.195C294.411 169.529 311.074 167.528 321.072 168.195C331.07 168.862 342.401 170.196 339.069 163.525C335.736 156.854 331.737 152.186 335.736 138.849C338.866 128.411 338.73 89.3829 338.523 72.9008C338.495 70.6374 337.888 68.4189 336.761 66.4563C335.634 64.4937 334.023 62.8524 332.083 61.6883L325.071 57.4789Z" fill="#E5E5E5"/>
<path opacity="0.1" d="M315.408 78.4891L317.408 119.174L298.029 158.442L294.743 157.191L314.739 120.508L315.408 78.4891Z" fill="black"/>
<path opacity="0.1" d="M337.402 127.844V123.174L314.742 160.525L337.402 127.844Z" fill="black"/>
<path d="M293.441 22.7395L290.578 21.5935C290.578 21.5935 296.57 14.9942 304.903 15.5678L302.559 12.9854C302.559 12.9854 308.288 10.6902 313.498 16.7151C316.236 19.8826 319.404 23.606 321.382 27.7995H324.45L323.17 30.6211L327.651 33.4427L323.051 32.9379C323.487 35.3738 323.338 37.8784 322.616 40.2453L322.742 42.4755C322.742 42.4755 317.407 34.2152 317.407 33.0691V35.9387C317.407 35.9387 314.542 33.3563 314.542 31.6347L312.979 33.6434L312.198 30.488L302.561 33.6434L304.122 31.0598L298.131 31.9206L300.475 28.7651C300.475 28.7651 293.703 32.4949 293.443 35.6516C293.182 38.8082 289.797 42.8245 289.797 42.8245L288.234 39.9549C288.234 39.9549 285.89 27.0435 293.441 22.7395Z" fill="#2F2E41"/>
<path d="M304.653 178.272C305.458 177.812 306.153 177.181 306.688 176.423C307.223 175.666 307.586 174.8 307.751 173.887C307.915 172.974 307.878 172.036 307.641 171.139C307.404 170.242 306.974 169.408 306.38 168.695L317.999 149.372L306.297 149.856L297.057 168.132C295.927 169.21 295.232 170.665 295.102 172.221C294.973 173.778 295.418 175.328 296.354 176.578C297.291 177.828 298.653 178.69 300.182 179.003C301.712 179.315 303.302 179.055 304.653 178.272V178.272Z" fill="#9F616A"/>
<path d="M331.07 66.1507L336.069 65.1505C336.069 65.1505 351.066 76.1554 346.401 98.1651C341.735 120.175 321.072 153.523 321.072 153.523C321.072 153.523 316.405 159.526 315.073 160.86C313.741 162.193 311.074 160.86 312.407 162.861C313.74 164.862 310.407 166.196 310.407 166.196C310.407 166.196 295.743 166.196 297.076 160.86C298.41 155.524 321.072 117.504 321.072 117.504L317.74 82.1551C317.74 82.1551 315.072 64.8166 331.07 66.1507Z" fill="#E5E5E5"/>
<path d="M113.088 92.1313C113.249 113.905 99.3456 110.612 82.3941 110.612C65.4426 110.612 53.1785 113.856 51.7006 92.1313C49.3521 57.6108 58.4132 31.7598 82.3941 31.7598C107.201 31.7598 112.831 57.6108 113.088 92.1313Z" fill="#2F2E41"/>
<path d="M20.2476 45.9471C20.7953 47.0561 21.0934 48.2717 21.1209 49.5084C21.1483 50.7451 20.9045 51.9728 20.4064 53.105C19.9084 54.2371 19.1684 55.2463 18.2385 56.0613C17.3085 56.8764 16.2113 57.4775 15.0241 57.8223L13.4773 87.8516L0.900879 78.5894L4.29782 51.4931C3.85111 49.4589 4.1656 47.3315 5.1817 45.5139C6.1978 43.6963 7.84491 42.3148 9.81092 41.6312C11.7769 40.9476 13.9253 41.0093 15.8488 41.8048C17.7723 42.6002 19.3375 44.0741 20.2476 45.9471V45.9471Z" fill="#A0616A"/>
<path d="M133.656 215.654C134.339 214.622 134.787 213.454 134.969 212.23C135.151 211.007 135.063 209.758 134.711 208.572C134.359 207.387 133.751 206.293 132.931 205.367C132.11 204.442 131.097 203.708 129.963 203.217L132.192 173.231L118.554 180.841L118.528 208.15C117.83 210.112 117.875 212.262 118.655 214.193C119.435 216.123 120.896 217.701 122.761 218.626C124.626 219.551 126.765 219.759 128.773 219.211C130.781 218.664 132.519 217.398 133.656 215.654H133.656Z" fill="#A0616A"/>
<path d="M70.8494 360L81.1589 359.999L86.063 320.209L70.8472 320.21L70.8494 360Z" fill="#A0616A"/>
<path d="M68.2192 356.632L88.5222 356.631H88.523C90.2221 356.631 91.9046 356.966 93.4744 357.617C95.0443 358.267 96.4706 359.221 97.6721 360.423C98.8736 361.625 99.8267 363.053 100.477 364.623C101.127 366.194 101.462 367.878 101.462 369.578V369.999L68.2198 370L68.2192 356.632Z" fill="#2F2E41"/>
<path d="M136.44 360L146.75 359.999L151.655 320.209L136.439 320.21L136.44 360Z" fill="#A0616A"/>
<path d="M133.811 356.632L154.114 356.631H154.115C155.814 356.631 157.496 356.966 159.066 357.617C160.636 358.267 162.062 359.221 163.264 360.423C164.465 361.625 165.418 363.053 166.069 364.623C166.719 366.194 167.054 367.878 167.054 369.578V369.999L133.812 370L133.811 356.632Z" fill="#2F2E41"/>
<path d="M130.556 199.132L130.108 199.051C126.353 198.371 122.552 197.683 119.211 196.964L118.88 196.892L118.879 196.554C118.821 181.302 118.764 166.052 118.68 150.664C110.698 134.566 107.343 116.566 108.988 98.6716L109.006 98.4826L109.161 98.3717C110.616 97.3609 112.313 96.7561 114.079 96.6194C115.845 96.4828 117.615 96.8193 119.207 97.5944C120.765 98.4465 122.097 99.659 123.092 101.131C124.086 102.602 124.715 104.291 124.925 106.055C127.964 122.628 131.11 139.789 134.618 156.701L134.631 156.762L134.625 156.826C133.325 170.617 131.981 184.879 130.602 198.679L130.556 199.132Z" fill="#D00000"/>
<path d="M123.836 345.819L123.754 345.431C118.931 322.603 114.275 304.014 109.773 286.037C104.377 264.493 99.2641 244.078 94.1021 217.659C94.811 250.974 96.4576 274.91 98.3503 302.422C99.2049 314.845 100.089 327.691 100.985 342.688L101.013 343.145L100.555 343.134C84.4197 342.721 67.8885 341.723 51.9015 340.759L51.4785 340.734L51.5073 340.31C54.534 295.668 55.4825 266.66 56.175 245.478C57.6361 200.79 57.8607 193.921 74.4964 156.101C75.1269 154.666 78.889 150.427 83.0252 151.073L115.756 156.17L115.813 156.458C116.737 161.113 121.32 175.239 127.663 194.789C141.224 236.583 161.717 299.743 168.119 337.392L168.191 337.818L167.763 337.879C158.465 339.201 151.773 340.578 145.301 341.91C139.177 343.17 132.846 344.473 124.227 345.759L123.836 345.819Z" fill="#2F2E41"/>
<path d="M95.3889 167.984C86.6531 167.985 78.0185 164.952 71.8286 159.046C70.8612 158.483 70.0431 157.695 69.4434 156.75C68.8436 155.804 68.4795 154.728 68.382 153.613C68.2232 152.59 68.2899 151.546 68.5773 150.552C68.8648 149.559 69.3661 148.64 70.046 147.861C63.9772 140.511 57.7114 132.914 51.7135 125.178L51.5479 124.965L51.7398 124.598C55.6639 117.096 59.7217 109.339 63.6186 101.673C63.8898 101.005 64.3362 100.423 64.9108 99.9874C65.4853 99.5521 66.1666 99.28 66.8829 99.2C67.505 99.0823 68.1447 99.0928 68.7626 99.231C69.3805 99.3692 69.9638 99.6321 70.4767 100.004L70.4845 99.8171C70.6473 95.9369 70.8103 92.0567 70.9776 88.3786L70.9955 87.9858L71.3884 87.9768C78.8811 87.8116 86.6288 87.6399 94.2392 87.1888L94.5289 87.1715L98.3033 95.5967C104.434 95.001 110.603 96.2538 116.016 99.1943L116.265 99.3274L116.236 99.6084C114.718 114.088 115.048 128.702 117.219 143.099C117.101 149.672 116.974 156.39 115.642 161.745L115.603 161.901L115.469 161.992C109.52 165.942 102.529 168.029 95.3889 167.984Z" fill="#D00000"/>
<path d="M63.2336 131.432L62.7308 131.201C56.861 128.254 50.9727 124.985 45.2784 121.824L44.4917 121.67C29.4987 118.659 21.2398 117 7.71348 109.063L7.60959 109.002L7.55376 108.895C0.780841 95.9484 -1.10835 84.6316 0.583134 67.1402L0.617002 66.7893L0.967663 66.7614C2.43394 66.6423 4.82386 66.5625 7.13494 66.4853C9.38341 66.4105 11.7085 66.3325 13.1339 66.2207L13.4646 66.1944L13.5668 66.51C15.3392 71.9868 16.8449 77.0963 18.4391 82.5057C20.0776 88.0664 21.7711 93.8136 23.834 100.199C31.3869 102.371 51.6344 101.722 57.93 100.864C59.8129 100.725 61.7005 101.063 63.4192 101.844C65.1379 102.626 66.6326 103.828 67.766 105.339L67.8828 105.485L67.8526 105.67C66.4666 114.134 64.8751 122.648 63.3362 130.882L63.2336 131.432Z" fill="#D00000"/>
<path d="M100.14 74.0389C105.611 64.0236 101.933 51.4664 91.9237 45.9915C81.9147 40.5167 69.3655 44.1975 63.8941 54.2127C58.4227 64.228 62.1011 76.7853 72.1101 82.2601C82.119 87.735 94.6683 84.0542 100.14 74.0389Z" fill="#A0616A"/>
<path d="M58.4277 62.8935H66.5967L70.2006 52.7961L70.9212 62.8935H74.8256L76.9279 57.0033L77.3484 62.8935H106.36C106.36 57.0911 104.057 51.5265 99.9563 47.4236C95.856 43.3207 90.2948 41.0158 84.4962 41.0158H80.2916C74.4929 41.0158 68.9318 43.3207 64.8315 47.4236C60.7312 51.5265 58.4277 57.0912 58.4277 62.8935V62.8935Z" fill="#2F2E41"/>
</g>
<defs>
<clipPath id="clip0">
<rect width="566" height="370" fill="white"/>
</clipPath>
</defs>
</svg>
