<svg width="717" height="465" viewBox="0 0 717 465" fill="none" xmlns="http://www.w3.org/2000/svg">
<path d="M358.5 465C556.494 465 717 458.69 717 450.906C717 443.122 556.494 436.812 358.5 436.812C160.506 436.812 0 443.122 0 450.906C0 458.69 160.506 465 358.5 465Z" fill="#D0CDE1"/>
<path d="M214.903 347.344C214.903 360.415 211.026 373.193 203.762 384.061C196.497 394.93 186.173 403.401 174.093 408.403C162.013 413.405 148.72 414.714 135.896 412.164C123.072 409.614 111.293 403.319 102.047 394.076C92.8016 384.833 86.5052 373.057 83.9544 360.237C81.4035 347.417 82.7127 334.129 87.7164 322.052C92.7201 309.976 101.193 299.654 112.065 292.392C122.937 285.13 135.718 281.254 148.794 281.254C157.482 281.231 166.089 282.925 174.12 286.238C182.151 289.551 189.448 294.418 195.591 300.56C201.735 306.701 206.604 313.996 209.918 322.025C213.232 330.054 214.926 338.658 214.903 347.344Z" fill="#D00000"/>
<path d="M186.046 231.424C186.046 243.881 170.072 253.979 150.368 253.979C130.663 253.979 114.689 243.881 114.689 231.424C114.689 218.968 130.663 178.447 150.368 178.447C170.072 178.447 186.046 218.968 186.046 231.424Z" fill="#D00000"/>
<path d="M150.105 309.84C171.838 309.84 189.456 292.228 189.456 270.501C189.456 248.775 171.838 231.162 150.105 231.162C128.372 231.162 110.754 248.775 110.754 270.501C110.754 292.228 128.372 309.84 150.105 309.84Z" fill="#FFB8B8"/>
<path d="M150.105 356.785C174.591 356.785 194.441 338.585 194.441 316.135C194.441 293.684 174.591 275.484 150.105 275.484C125.62 275.484 105.77 293.684 105.77 316.135C105.77 338.585 125.62 356.785 150.105 356.785Z" fill="#EAE6FC"/>
<path d="M183.16 288.335H160.093C157.584 288.335 155.177 287.338 153.402 285.564C151.627 283.79 150.63 281.383 150.63 278.874C150.63 277.384 150.982 275.915 151.658 274.587C152.333 273.258 153.314 272.108 154.518 271.23C155.723 270.353 157.118 269.772 158.59 269.535C160.062 269.299 161.568 269.413 162.988 269.869C180.037 275.355 196.295 278.905 205.721 265.781C205.721 268.742 205.138 271.675 204.004 274.412C202.87 277.148 201.208 279.635 199.113 281.729C197.018 283.823 194.531 285.485 191.794 286.618C189.057 287.752 186.123 288.335 183.16 288.335Z" fill="#EAE6FC"/>
<path d="M116.526 288.335H139.592C142.102 288.335 144.509 287.338 146.284 285.564C148.059 283.79 149.056 281.383 149.056 278.874C149.056 277.384 148.704 275.915 148.028 274.587C147.352 273.258 146.372 272.108 145.168 271.23C143.963 270.353 142.568 269.772 141.096 269.535C139.624 269.299 138.118 269.413 136.698 269.869C119.648 275.355 103.391 278.905 93.9646 265.781C93.9646 268.742 94.5482 271.675 95.682 274.412C96.8158 277.148 98.4776 279.635 100.573 281.729C102.668 283.823 105.155 285.485 107.892 286.618C110.629 287.752 113.563 288.335 116.526 288.335Z" fill="#EAE6FC"/>
<path d="M149.843 284.401C153.9 284.401 157.188 281.113 157.188 277.058C157.188 273.002 153.9 269.714 149.843 269.714C145.786 269.714 142.497 273.002 142.497 277.058C142.497 281.113 145.786 284.401 149.843 284.401Z" fill="#FFB8B8"/>
<path d="M183.951 253.979H116.657C115.06 253.979 113.511 253.432 112.268 252.429C111.025 251.426 110.163 250.028 109.826 248.467L107.859 239.36C107.639 238.341 107.65 237.286 107.891 236.271C108.132 235.257 108.597 234.309 109.252 233.498C109.907 232.687 110.736 232.032 111.677 231.583C112.618 231.133 113.647 230.9 114.69 230.9H185.711C186.741 230.9 187.758 231.127 188.69 231.566C189.622 232.005 190.445 232.645 191.101 233.439C191.756 234.233 192.228 235.162 192.483 236.16C192.737 237.158 192.768 238.2 192.572 239.211L190.812 248.318C190.504 249.911 189.651 251.348 188.399 252.381C187.147 253.414 185.575 253.979 183.951 253.979Z" fill="#EAE6FC"/>
<path d="M161.911 191.036C167.126 191.036 171.355 186.809 171.355 181.595C171.355 176.38 167.126 172.153 161.911 172.153C156.695 172.153 152.466 176.38 152.466 181.595C152.466 186.809 156.695 191.036 161.911 191.036Z" fill="#EAE6FC"/>
<path d="M150.368 293.871C158.481 293.871 165.059 292.449 165.059 290.695C165.059 288.942 158.481 287.52 150.368 287.52C142.254 287.52 135.677 288.942 135.677 290.695C135.677 292.449 142.254 293.871 150.368 293.871Z" fill="#FFB8B8"/>
<path d="M212.883 363.604C211.196 370.284 208.466 376.657 204.793 382.487H92.7947C89.1213 376.657 86.3908 370.284 84.7041 363.604H212.883Z" fill="#3F3D56"/>
<path d="M165.583 389.83H132.004V356.261H165.583L165.583 389.83ZM137.251 384.585H160.337V361.506H137.251V384.585Z" fill="#EAE6FC"/>
<path d="M133.053 407.664H125.183V440.184H133.053V407.664Z" fill="#D00000"/>
<path d="M171.879 407.664H164.009V440.184H171.879V407.664Z" fill="#D00000"/>
<path d="M220.899 303.004L214.227 298.832L196.975 326.402L203.647 330.575L220.899 303.004Z" fill="#D00000"/>
<path d="M177.651 444.008V428.645H159.812L164.103 443.856H164.009V452.248H184.472C184.471 450.296 183.79 448.405 182.545 446.901C181.3 445.397 179.569 444.374 177.651 444.008Z" fill="#3F3D56"/>
<path d="M119.936 444.008V428.645H137.775L133.484 443.856H133.578V452.248H113.115C113.116 450.296 113.798 448.405 115.043 446.901C116.288 445.397 118.018 444.374 119.936 444.008Z" fill="#3F3D56"/>
<path d="M226.45 288.255C223.43 285.283 220.177 288.345 217.789 291.873C217.199 290.213 216.36 289.093 215.747 289.252C215.014 289.441 214.881 291.375 215.449 293.571C215.573 294.056 215.73 294.533 215.916 294.999C214.874 296.943 214.242 298.478 214.242 298.478L210.949 302.156L220.297 308.225L222.584 303.392C222.584 303.392 232.14 293.854 226.45 288.255Z" fill="#3F3D56"/>
<path d="M70.0166 352.391L76.6888 356.564L93.9406 328.993L87.2684 324.821L70.0166 352.391Z" fill="#D00000"/>
<path d="M64.466 367.141C67.4859 370.113 70.7387 367.051 73.1268 363.523C73.7167 365.182 74.5555 366.302 75.1694 366.143C75.9016 365.954 76.0351 364.021 75.4675 361.825C75.3426 361.339 75.1863 360.862 74.9996 360.396C76.0419 358.452 76.6743 356.918 76.6743 356.918L79.9666 353.239L70.6192 347.17L68.3323 352.003C68.3323 352.003 58.7757 361.541 64.466 367.141Z" fill="#3F3D56"/>
<path d="M530.365 409.582L473.544 311.193H495.699L446.677 226.31H482.24L430.568 136.838H457.153L389.612 19.8875L322.071 136.838H348.655L296.984 226.31H332.546L283.524 311.193H305.68L248.858 409.582H360.665V446.879H408.266V409.582H530.365Z" fill="#D0CDE1"/>
<path d="M460.678 250.876C467.201 250.876 472.489 245.59 472.489 239.069C472.489 232.548 467.201 227.262 460.678 227.262C454.155 227.262 448.868 232.548 448.868 239.069C448.868 245.59 454.155 250.876 460.678 250.876Z" fill="#FF6584"/>
<path d="M452.876 238.694L449.817 233.958L450.438 233.557L453.068 237.631L458.468 233.62L463.297 238.378L468.044 234.251L472.396 239.254L471.84 239.738L467.971 235.292L463.266 239.383L458.401 234.589L452.876 238.694Z" fill="#575A89"/>
<path d="M470.729 245.545L466.829 241.063L462.121 245.156L457.259 240.365L451.742 244.463L448.711 239.769L449.251 239.421L451.909 243.538L457.317 239.52L462.149 244.281L466.893 240.156L471.214 245.123L470.729 245.545Z" fill="#575A89"/>
<path d="M461.353 218.773L460.737 227.607L461.474 227.658L462.089 218.824L461.353 218.773Z" fill="#575A89"/>
<path d="M303.082 256.021C309.605 256.021 314.893 250.734 314.893 244.214C314.893 237.693 309.605 232.406 303.082 232.406C296.559 232.406 291.271 237.693 291.271 244.214C291.271 250.734 296.559 256.021 303.082 256.021Z" fill="#FF6584"/>
<path d="M295.279 243.838L292.221 239.102L292.842 238.701L295.472 242.776L300.872 238.764L305.701 243.522L310.448 239.395L314.8 244.398L314.243 244.883L310.375 240.436L305.67 244.528L300.804 239.734L295.279 243.838Z" fill="#575A89"/>
<path d="M313.132 250.689L309.233 246.207L304.524 250.301L299.662 245.509L294.145 249.607L291.115 244.913L291.655 244.565L294.312 248.682L299.721 244.664L304.552 249.425L309.296 245.3L313.618 250.267L313.132 250.689Z" fill="#575A89"/>
<path d="M303.755 223.919L303.14 232.753L303.876 232.804L304.492 223.97L303.755 223.919Z" fill="#575A89"/>
<path d="M377.699 128.052C384.222 128.052 389.51 122.766 389.51 116.245C389.51 109.724 384.222 104.437 377.699 104.437C371.176 104.437 365.888 109.724 365.888 116.245C365.888 122.766 371.176 128.052 377.699 128.052Z" fill="#2ED699"/>
<path d="M369.896 115.87L366.838 111.133L367.458 110.733L370.089 114.807L375.489 110.796L380.317 115.554L385.065 111.426L389.417 116.429L388.86 116.913L384.992 112.467L380.287 116.558L375.421 111.764L369.896 115.87Z" fill="#575A89"/>
<path d="M387.749 122.721L383.85 118.239L379.141 122.332L374.279 117.541L368.762 121.639L365.732 116.945L366.272 116.596L368.929 120.713L374.338 116.695L379.169 121.456L383.913 117.332L388.235 122.299L387.749 122.721Z" fill="#575A89"/>
<path d="M378.373 95.9488L377.758 104.783L378.494 104.834L379.11 96.0001L378.373 95.9488Z" fill="#575A89"/>
<path d="M449.743 338.975C456.266 338.975 461.554 333.689 461.554 327.168C461.554 320.647 456.266 315.361 449.743 315.361C443.22 315.361 437.932 320.647 437.932 327.168C437.932 333.689 443.22 338.975 449.743 338.975Z" fill="#E9EB78"/>
<path d="M441.941 326.793L438.883 322.057L439.503 321.656L442.133 325.73L447.533 321.719L452.362 326.477L457.108 322.35L461.461 327.353L460.904 327.837L457.036 323.391L452.331 327.482L447.466 322.688L441.941 326.793Z" fill="#575A89"/>
<path d="M459.794 333.644L455.894 329.162L451.186 333.255L446.323 328.464L440.806 332.563L437.776 327.868L438.316 327.52L440.974 331.637L446.382 327.619L451.213 332.38L455.957 328.255L460.279 333.222L459.794 333.644Z" fill="#575A89"/>
<path d="M450.418 306.872L449.802 315.706L450.538 315.758L451.154 306.924L450.418 306.872Z" fill="#575A89"/>
<path d="M316.59 382.703C323.113 382.703 328.401 377.417 328.401 370.896C328.401 364.375 323.113 359.089 316.59 359.089C310.067 359.089 304.78 364.375 304.78 370.896C304.78 377.417 310.067 382.703 316.59 382.703Z" fill="#FF6584"/>
<path d="M308.787 370.521L305.729 365.785L306.35 365.384L308.98 369.458L314.38 365.447L319.209 370.205L323.956 366.078L328.308 371.081L327.752 371.565L323.883 367.119L319.178 371.21L314.313 366.416L308.787 370.521Z" fill="#575A89"/>
<path d="M326.64 377.372L322.741 372.89L318.032 376.983L313.17 372.192L307.653 376.291L304.623 371.596L305.163 371.248L307.821 375.365L313.229 371.347L318.061 376.108L322.804 371.983L327.126 376.95L326.64 377.372Z" fill="#575A89"/>
<path d="M317.263 350.601L316.648 359.435L317.384 359.487L318 350.653L317.263 350.601Z" fill="#575A89"/>
<path d="M410.505 196.859C417.028 196.859 422.316 191.573 422.316 185.052C422.316 178.531 417.028 173.245 410.505 173.245C403.982 173.245 398.694 178.531 398.694 185.052C398.694 191.573 403.982 196.859 410.505 196.859Z" fill="#E9EB78"/>
<path d="M402.702 184.677L399.644 179.94L400.265 179.54L402.895 183.614L408.295 179.603L413.124 184.361L417.87 180.234L422.223 185.237L421.666 185.721L417.797 181.275L413.093 185.366L408.227 180.572L402.702 184.677Z" fill="#575A89"/>
<path d="M420.555 191.528L416.656 187.046L411.947 191.139L407.085 186.348L401.568 190.446L398.537 185.752L399.078 185.403L401.736 189.52L407.144 185.503L411.975 190.264L416.719 186.138L421.041 191.106L420.555 191.528Z" fill="#575A89"/>
<path d="M411.179 164.756L410.564 173.59L411.3 173.641L411.916 164.807L411.179 164.756Z" fill="#575A89"/>
<path d="M377.056 313.253C383.579 313.253 388.867 307.967 388.867 301.446C388.867 294.925 383.579 289.639 377.056 289.639C370.533 289.639 365.245 294.925 365.245 301.446C365.245 307.967 370.533 313.253 377.056 313.253Z" fill="#2ED699"/>
<path d="M369.253 301.07L366.195 296.334L366.815 295.934L369.446 300.008L374.846 295.997L379.674 300.755L384.421 296.627L388.774 301.63L388.217 302.115L384.349 297.668L379.643 301.76L374.778 296.966L369.253 301.07Z" fill="#575A89"/>
<path d="M387.106 307.922L383.207 303.44L378.498 307.533L373.636 302.742L368.119 306.84L365.089 302.146L365.629 301.797L368.286 305.914L373.695 301.897L378.526 306.657L383.27 302.532L387.592 307.499L387.106 307.922Z" fill="#575A89"/>
<path d="M377.73 281.15L377.115 289.984L377.851 290.035L378.466 281.201L377.73 281.15Z" fill="#575A89"/>
<path d="M398.904 31.4567L388.846 23.911L378.558 31.1426L382.629 19.2472L372.57 11.7015L385.144 11.8954L389.215 0L392.916 12.0156L405.49 12.2095L395.203 19.4412L398.904 31.4567Z" fill="#E9EB78"/>
<path d="M389.646 90.1496C369.236 90.1496 354.016 82.0699 353.79 81.9468L354.404 80.8167C354.737 80.9973 388.102 98.6839 422.122 81.0504L422.713 82.192C412.496 87.4778 401.15 90.2083 389.646 90.1496Z" fill="#3F3D56"/>
<path d="M393.735 157.167C375.998 157.077 358.35 154.652 341.246 149.956L341.623 148.726C342.153 148.888 395.077 164.748 437.549 148.739L438.003 149.943C423.629 155.36 408.074 157.167 393.735 157.167Z" fill="#3F3D56"/>
<path d="M384.934 227.048C373.857 227.066 362.793 226.279 351.83 224.692C322.768 220.429 305.608 211.826 305.438 211.739L306.021 210.593C306.189 210.678 323.205 219.202 352.079 223.428C378.726 227.329 421.208 228.261 472.28 210.558L472.7 211.774C439.06 223.434 409.118 227.048 384.934 227.048Z" fill="#3F3D56"/>
<path d="M392.173 290.185C380.582 290.183 369.003 289.456 357.503 288.008C326.294 284.071 305.7 276.131 305.495 276.051L305.963 274.853C306.166 274.932 326.643 282.823 357.705 286.737C386.358 290.346 430.137 291.214 475.986 274.847L476.418 276.058C446.208 286.843 416.896 290.185 392.173 290.185Z" fill="#3F3D56"/>
<path d="M397.196 362.521C382.923 362.496 368.667 361.54 354.519 359.658C315.284 354.484 287.164 344.054 286.885 343.949L287.336 342.744C287.615 342.848 315.622 353.235 354.72 358.388C390.774 363.14 443.905 364.285 492.271 342.759L492.793 343.934C460.912 358.124 426.986 362.521 397.196 362.521Z" fill="#3F3D56"/>
<path d="M592.864 390.691H534.141V445.581H592.864V390.691Z" fill="#DE4444"/>
<path d="M569.669 389.223H557.337V447.342H569.669V389.223Z" fill="#3F3D56"/>
<path d="M561.735 378.23C565.673 381.608 564.467 389.47 564.467 389.47C564.467 389.47 556.877 391.854 552.939 388.476C549.001 385.097 550.207 377.235 550.207 377.235C550.207 377.235 557.797 374.851 561.735 378.23Z" fill="#3F3D56"/>
<path d="M574.807 387.734C571.44 391.681 563.572 390.5 563.572 390.5C563.572 390.5 561.163 382.919 564.531 378.972C567.898 375.025 575.766 376.206 575.766 376.206C575.766 376.206 578.174 383.786 574.807 387.734Z" fill="#3F3D56"/>
<path d="M655.038 405.435H611.598V446.039H655.038V405.435Z" fill="#E9EB78"/>
<path d="M637.879 404.349H628.757V447.342H637.879V404.349Z" fill="#3F3D56"/>
<path d="M632.01 396.217C634.923 398.716 634.031 404.532 634.031 404.532C634.031 404.532 628.416 406.296 625.504 403.796C622.591 401.297 623.483 395.481 623.483 395.481C623.483 395.481 629.098 393.718 632.01 396.217Z" fill="#3F3D56"/>
<path d="M641.68 403.247C639.189 406.167 633.369 405.294 633.369 405.294C633.369 405.294 631.587 399.686 634.078 396.766C636.569 393.846 642.389 394.72 642.389 394.72C642.389 394.72 644.171 400.328 641.68 403.247Z" fill="#3F3D56"/>
<path d="M291.114 405.435H247.675V446.039H291.114V405.435Z" fill="#2ED699"/>
<path d="M273.956 404.349H264.833V447.342H273.956V404.349Z" fill="#3F3D56"/>
<path d="M268.087 396.217C271 398.716 270.108 404.532 270.108 404.532C270.108 404.532 264.493 406.296 261.58 403.796C258.667 401.297 259.559 395.481 259.559 395.481C259.559 395.481 265.174 393.718 268.087 396.217Z" fill="#3F3D56"/>
<path d="M277.757 403.247C275.266 406.167 269.446 405.294 269.446 405.294C269.446 405.294 267.664 399.686 270.155 396.766C272.646 393.846 278.466 394.72 278.466 394.72C278.466 394.72 280.248 400.328 277.757 403.247Z" fill="#3F3D56"/>
</svg>
