<svg width="147" height="40" viewBox="0 0 147 40" fill="none" xmlns="http://www.w3.org/2000/svg">
<path d="M5.3 38.65L5.35 38.5C5.35 38.1667 5.06667 37.9833 4.5 37.95C3.8 37.5167 3.05 36.7833 2.25 35.75C1.45 34.6833 0.95 33.8667 0.75 33.3C0.65 33.0333 0.6 32.85 0.6 32.75C0.6 32.5833 0.666667 32.4667 0.8 32.4C0.933333 32.3 1.1 32.2167 1.3 32.15C1.5 32.05 1.65 31.9833 1.75 31.95C2.35 31.55 2.8 31.35 3.1 31.35C3.43333 31.35 3.71667 31.5667 3.95 32C4.41667 32.8333 5.16667 33.5333 6.2 34.1C7.23333 34.6333 8.38333 34.9 9.65 34.9C10.7833 34.9 11.8 34.7 12.7 34.3C13.5667 33.9 14 33.3167 14 32.55C14 31.9833 13.75 31.3 13.25 30.5C13.1833 30.3 13.0667 30.1167 12.9 29.95C12.7333 29.7833 12.5333 29.6167 12.3 29.45C11.7667 29.05 11.1833 28.5333 10.55 27.9C10.0167 27.7 9.46667 27.4333 8.9 27.1L7.85 26.6C7.01667 26.2 6.08333 25.5667 5.05 24.7C4.01667 23.8 3.3 22.9667 2.9 22.2C2.16667 21.5 1.8 20.4333 1.8 19C1.8 17.4333 2.16667 15.9667 2.9 14.6C3.3 13.7 4.26667 12.3167 5.8 10.45C7.33333 8.58333 8.46667 7.41667 9.2 6.95L10.5 5.7C10.5333 5.56667 10.5833 5.5 10.65 5.5C10.7167 5.46667 10.7667 5.45 10.8 5.45C10.9 5.38333 11.25 5.23333 11.85 5C12.45 4.73333 13.0833 4.28333 13.75 3.65C15.7833 2.65 17.5833 1.95 19.15 1.55C20.75 1.11667 22.0833 0.899999 23.15 0.899999C24.45 0.966665 25.65 1.43333 26.75 2.3C27.8833 3.16667 28.5333 4.16667 28.7 5.3C28.7667 5.63333 28.8 5.9 28.8 6.1C28.8 7.33333 28.3 8.71666 27.3 10.25C26.3 11.7833 25.2333 12.8667 24.1 13.5C23.6 13.7333 23.1167 13.85 22.65 13.85C22.0833 13.85 21.6167 13.7 21.25 13.4C20.9167 13.1 20.7667 12.7167 20.8 12.25C20.8 11.95 20.9 11.6167 21.1 11.25C21.3333 10.85 21.8333 10.2167 22.6 9.35C23.7333 7.68333 24.3 6.48333 24.3 5.75C24.3 5.25 24 4.95 23.4 4.85C23.0333 4.75 22.0333 4.9 20.4 5.3C18.8 5.66666 18 5.93333 18 6.1C18 6.13333 17.9833 6.2 17.95 6.3C17.95 6.36667 17.9 6.38333 17.8 6.35C17.6667 6.31666 16.7167 6.86667 14.95 8C13.2167 9.13333 12.3167 9.78333 12.25 9.95C12.2167 10.1167 12.0833 10.3 11.85 10.5C11.65 10.6667 11.4 10.8167 11.1 10.95C10.5 11.3167 9.95 11.8167 9.45 12.45C8.98333 13.0833 8.36667 14.0833 7.6 15.45C7.2 16.0167 6.86667 16.6333 6.6 17.3C6.36667 17.9667 6.25 18.5667 6.25 19.1C6.25 19.4667 6.3 19.7833 6.4 20.05C6.53333 20.55 6.88333 21.0167 7.45 21.45C8.05 21.85 9.18333 22.55 10.85 23.55C12.55 24.5167 14.0833 25.55 15.45 26.65C16.8167 27.7167 17.65 28.5667 17.95 29.2C18.4833 29.9667 18.75 30.9667 18.75 32.2C18.75 33.1667 18.6167 34.0833 18.35 34.95C18.05 35.5833 17.6667 36.1667 17.2 36.7C16.7333 37.2667 16.3167 37.5333 15.95 37.5C15.6167 37.6 15.3333 37.7167 15.1 37.85C14.8667 38.0167 14.6667 38.1333 14.5 38.2C14.1 38.4333 13.0667 38.6667 11.4 38.9C9.76667 39.1667 8.4 39.2833 7.3 39.25L5.3 38.65ZM25.4459 36C24.3059 36 23.3859 35.68 22.6859 35.04C21.9859 34.4 21.6359 33.49 21.6359 32.31C21.6359 31.85 21.6659 31.34 21.7259 30.78C21.7659 30.3 21.9559 29.64 22.2959 28.8C22.6559 27.96 23.1359 27.14 23.7359 26.34C24.3559 25.54 25.0759 24.95 25.8959 24.57C26.2759 24.39 26.5959 24.27 26.8559 24.21C27.1159 24.13 27.4159 24.09 27.7559 24.09C28.5759 24.09 29.2359 24.24 29.7359 24.54C30.2559 24.84 30.6159 25.18 30.8159 25.56C31.0359 25.94 31.1459 26.27 31.1459 26.55V26.7V26.79C31.1459 27.03 31.0059 27.47 30.7259 28.11C30.4459 28.75 29.9959 29.35 29.3759 29.91C28.7759 30.47 27.9959 30.78 27.0359 30.84C26.5559 30.84 26.0859 30.8 25.6259 30.72C25.1859 30.62 24.9059 30.57 24.7859 30.57C24.4859 30.57 24.2959 30.68 24.2159 30.9C24.1359 31.12 24.0959 31.49 24.0959 32.01C24.1559 32.57 24.3059 32.96 24.5459 33.18C24.8059 33.4 25.1759 33.51 25.6559 33.51C25.8959 33.51 26.1759 33.44 26.4959 33.3C26.8159 33.14 27.1959 32.89 27.6359 32.55C27.8759 32.35 28.0659 32.21 28.2059 32.13C28.3459 32.05 28.5159 32.01 28.7159 32.01C28.8959 32.01 29.1059 32.13 29.3459 32.37C29.5859 32.61 29.7159 32.84 29.7359 33.06C29.6959 33.3 29.4759 33.66 29.0759 34.14C28.6759 34.62 28.1559 35.05 27.5159 35.43C26.8759 35.81 26.1859 36 25.4459 36ZM26.4959 28.77C26.8759 28.77 27.1359 28.73 27.2759 28.65C27.4759 28.55 27.7759 28.3 28.1759 27.9C28.5959 27.48 28.8159 27.19 28.8359 27.03C28.8359 26.83 28.7459 26.67 28.5659 26.55C28.4059 26.41 28.1759 26.32 27.8759 26.28H27.5459C27.2859 26.28 26.9059 26.5 26.4059 26.94C25.9259 27.36 25.5059 27.85 25.1459 28.41C25.1659 28.51 25.3159 28.6 25.5959 28.68C25.8759 28.74 26.1759 28.77 26.4959 28.77ZM35.4054 36.12C35.1654 36.16 34.9754 36.18 34.8354 36.18C34.0154 36.18 33.2854 35.92 32.6454 35.4C32.0254 34.86 31.7154 34.18 31.7154 33.36L31.6854 32.88C31.6854 31.94 31.8954 30.85 32.3154 29.61C32.7354 28.37 33.2554 27.36 33.8754 26.58C34.3754 26 34.8054 25.53 35.1654 25.17C35.5254 24.81 35.8554 24.57 36.1554 24.45C36.4154 24.35 36.7454 24.26 37.1454 24.18C37.5454 24.1 37.8454 24.06 38.0454 24.06C38.4454 24.16 38.8154 24.3 39.1554 24.48C39.5154 24.66 39.6954 24.86 39.6954 25.08L39.8454 25.23C39.9854 25.23 40.1454 25.45 40.3254 25.89C40.5254 26.33 40.6254 26.73 40.6254 27.09C40.6254 27.27 40.5954 27.42 40.5354 27.54C40.4554 27.92 40.2954 28.29 40.0554 28.65C39.8354 29.01 39.6454 29.19 39.4854 29.19C39.2654 29.19 39.1554 29.25 39.1554 29.37C39.1554 29.47 39.0354 29.52 38.7954 29.52C38.5954 29.52 38.3854 29.48 38.1654 29.4C37.9454 29.3 37.8154 29.18 37.7754 29.04C37.7754 28.94 37.8554 28.54 38.0154 27.84C38.0754 27.54 38.1054 27.29 38.1054 27.09C38.1054 26.73 37.9854 26.55 37.7454 26.55C37.6854 26.55 37.5354 26.59 37.2954 26.67C36.7754 26.95 36.3554 27.28 36.0354 27.66C35.7354 28.02 35.4654 28.52 35.2254 29.16C34.9854 29.8 34.7054 30.73 34.3854 31.95C34.3254 32.19 34.2954 32.41 34.2954 32.61C34.2954 32.85 34.3254 33.05 34.3854 33.21C34.4454 33.35 34.5054 33.43 34.5654 33.45C34.6654 33.49 34.8454 33.51 35.1054 33.51C35.6054 33.51 36.0054 33.42 36.3054 33.24C36.6654 33.04 37.0154 32.82 37.3554 32.58C37.6954 32.32 37.9054 32.16 37.9854 32.1C38.0254 32.06 38.1054 31.95 38.2254 31.77C38.3454 31.57 38.4754 31.44 38.6154 31.38C38.7354 31.2 38.8854 31.09 39.0654 31.05C39.2454 31.01 39.4254 30.99 39.6054 30.99C39.7854 30.99 39.9054 30.99 39.9654 30.99C40.2254 31.07 40.4754 31.25 40.7154 31.53C40.9554 31.81 40.9954 31.99 40.8354 32.07C40.7754 32.07 40.7354 32.09 40.7154 32.13C40.6954 32.17 40.6854 32.2 40.6854 32.22C40.7254 32.32 40.5654 32.59 40.2054 33.03C39.8454 33.45 39.4454 33.86 39.0054 34.26C38.5654 34.64 38.2654 34.83 38.1054 34.83C38.0254 34.83 37.9554 34.84 37.8954 34.86C37.8354 34.88 37.8054 34.93 37.8054 35.01C37.8054 35.09 37.4954 35.28 36.8754 35.58C36.2754 35.86 35.7854 36.04 35.4054 36.12ZM45.0131 35.37C44.8531 35.37 44.6231 35.33 44.3231 35.25C44.0431 35.17 43.8731 35.1 43.8131 35.04C43.6931 34.94 43.5731 34.79 43.4531 34.59C43.3331 34.37 43.2731 34.12 43.2731 33.84C43.2731 33.4 43.4331 32.94 43.7531 32.46C43.8731 32.22 44.1731 31.39 44.6531 29.97L45.2531 28.32C45.2931 27.98 45.2731 27.74 45.1931 27.6C45.1131 27.44 44.9431 27.35 44.6831 27.33C44.4631 27.33 44.3031 27.26 44.2031 27.12C44.1031 26.96 44.0531 26.71 44.0531 26.37C44.1131 25.79 44.3431 25.37 44.7431 25.11C45.0631 24.95 45.5031 24.87 46.0631 24.87C46.5631 24.87 46.8931 24.94 47.0531 25.08C47.2131 25.2 47.3531 25.47 47.4731 25.89C47.5931 26.31 47.6831 26.7 47.7431 27.06C47.8431 27 48.1031 26.73 48.5231 26.25L49.1831 25.56C49.5231 25.32 49.9131 25.09 50.3531 24.87C50.7931 24.65 51.1031 24.54 51.2831 24.54C51.4831 24.54 51.7431 24.64 52.0631 24.84C52.3831 25.04 52.5931 25.23 52.6931 25.41C52.9931 25.97 53.1431 26.43 53.1431 26.79C53.1431 27.07 53.0731 27.29 52.9331 27.45C52.3931 28.13 51.7931 28.47 51.1331 28.47C50.9731 28.47 50.8431 28.46 50.7431 28.44C50.6431 28.42 50.5231 28.28 50.3831 28.02C50.2431 27.76 50.1631 27.56 50.1431 27.42C50.1431 27.36 49.9931 27.48 49.6931 27.78C49.4131 28.06 49.2331 28.24 49.1531 28.32L48.6431 28.86C48.3231 29.24 47.9931 29.74 47.6531 30.36C47.3331 30.98 46.8531 31.92 46.2131 33.18L45.8231 34.11C45.6231 34.57 45.4731 34.9 45.3731 35.1C45.2731 35.28 45.1531 35.37 45.0131 35.37ZM56.5437 36.54C54.2637 36.54 53.1237 35.24 53.1237 32.64C53.1237 31.7 53.3537 30.64 53.8137 29.46C54.2937 28.26 54.8837 27.19 55.5837 26.25C56.3037 25.29 57.0137 24.65 57.7137 24.33C58.0937 24.13 58.5337 24.03 59.0337 24.03C59.9337 24.03 60.7137 24.23 61.3737 24.63C62.0537 25.01 62.3937 25.74 62.3937 26.82C62.3937 27.44 62.1837 28.12 61.7637 28.86C61.3437 29.6 60.8137 30.23 60.1737 30.75C59.5537 31.25 58.9437 31.5 58.3437 31.5C57.4437 31.5 56.6837 31.21 56.0637 30.63C55.7237 31.31 55.5537 31.96 55.5537 32.58C55.5537 33.08 55.6137 33.47 55.7337 33.75C55.8537 34.01 56.1337 34.14 56.5737 34.14C56.9937 34.14 57.3337 34.08 57.5937 33.96C57.8537 33.84 58.0937 33.7 58.3137 33.54C58.5337 33.38 58.7037 33.26 58.8237 33.18L58.9437 33.12H58.9137C59.2737 32.92 59.5337 32.77 59.6937 32.67C59.8737 32.55 60.0237 32.47 60.1437 32.43C60.4437 32.43 60.7237 32.52 60.9837 32.7C61.2437 32.88 61.3737 33.1 61.3737 33.36C61.3737 33.56 61.1937 33.89 60.8337 34.35C60.4737 34.79 60.1037 35.1 59.7237 35.28L59.3637 35.46H59.3937C59.2137 35.7 59.0337 35.82 58.8537 35.82H58.6137C58.5337 35.98 58.2637 36.14 57.8037 36.3C57.3637 36.46 56.9437 36.54 56.5437 36.54ZM58.1037 29.31C58.6637 29.31 59.1237 29.07 59.4837 28.59C59.8637 28.11 60.0537 27.63 60.0537 27.15C60.0537 26.93 59.9937 26.73 59.8737 26.55C59.7737 26.37 59.6337 26.28 59.4537 26.28C59.1137 26.28 58.7337 26.44 58.3137 26.76C57.8937 27.08 57.5237 27.5 57.2037 28.02L56.8137 28.65C56.8937 28.61 56.9537 28.59 56.9937 28.59C57.1537 28.59 57.2737 28.66 57.3537 28.8C57.4337 28.94 57.5237 29.06 57.6237 29.16C57.7237 29.26 57.8837 29.31 58.1037 29.31ZM66.3232 37.8C65.5432 37.78 64.9832 37.59 64.6432 37.23C64.3232 36.89 64.1632 36.4 64.1632 35.76C64.1632 35.6 64.1832 35.34 64.2232 34.98C64.3032 34.7 64.3632 34.42 64.4032 34.14C64.5032 33.7 64.6032 33.44 64.7032 33.36C64.7232 33.34 64.7432 33.3 64.7632 33.24C64.7832 33.18 64.7632 33.13 64.7032 33.09C64.7032 32.83 64.7932 32.47 64.9732 32.01C65.0132 31.87 65.0632 31.73 65.1232 31.59C65.1832 31.45 65.2232 31.36 65.2432 31.32C65.2032 31.28 65.1832 31.22 65.1832 31.14C65.1832 31.04 65.2332 30.94 65.3332 30.84C65.4532 30.74 65.5332 30.65 65.5732 30.57C65.6332 30.49 65.6332 30.41 65.5732 30.33C65.5332 30.23 65.7232 29.78 66.1432 28.98C66.4032 28.46 66.5432 28.17 66.5632 28.11C66.5432 28.05 66.6832 27.68 66.9832 27C67.3032 26.32 67.5532 25.81 67.7332 25.47C67.9132 25.37 67.8432 25.3 67.5232 25.26C67.2032 25.22 66.8132 25.21 66.3532 25.23C65.6932 25.21 65.1832 25.18 64.8232 25.14C64.4632 25.08 64.1732 24.99 63.9532 24.87C63.8132 24.73 63.7432 24.55 63.7432 24.33C63.7432 24.07 63.8332 23.83 64.0132 23.61C64.2132 23.39 64.4532 23.27 64.7332 23.25C65.2532 23.23 66.0532 23.16 67.1332 23.04L68.6632 22.92L68.7532 22.41C68.8532 22.23 68.9432 22.08 69.0232 21.96C69.1232 21.82 69.1832 21.7 69.2032 21.6C69.2432 21.5 69.2732 21.35 69.2932 21.15C69.3532 21.07 69.4532 20.87 69.5932 20.55C69.7532 20.23 69.8532 19.92 69.8932 19.62C70.1132 19.24 70.3132 18.88 70.4932 18.54C70.6932 18.18 70.8132 17.97 70.8532 17.91C71.2132 17.37 71.6132 17.1 72.0532 17.1C72.2932 17.1 72.5432 17.18 72.8032 17.34C73.0632 17.52 73.2632 17.68 73.4032 17.82C73.5432 17.96 73.6132 18.15 73.6132 18.39C73.6132 18.57 73.5232 18.83 73.3432 19.17C73.2632 19.33 73.1432 19.65 72.9832 20.13C72.8432 20.31 72.6932 20.56 72.5332 20.88C72.3732 21.18 72.2632 21.47 72.2032 21.75C72.1632 21.85 72.1032 21.99 72.0232 22.17C71.9432 22.33 71.8832 22.43 71.8432 22.47C71.8232 22.49 71.7832 22.5 71.7232 22.5C71.7432 22.62 71.7832 22.7 71.8432 22.74C71.9032 22.78 72.0032 22.8 72.1432 22.8C72.2432 22.8 72.3632 22.79 72.5032 22.77C72.6632 22.75 72.8532 22.74 73.0732 22.74C73.2732 22.72 73.4432 22.69 73.5832 22.65C73.7432 22.61 73.8932 22.59 74.0332 22.59C74.1132 22.59 74.2332 22.62 74.3932 22.68C74.4932 22.8 74.5432 23.03 74.5432 23.37C74.5432 23.63 74.5032 23.88 74.4232 24.12C74.3432 24.34 74.2432 24.48 74.1232 24.54C74.0232 24.56 73.8032 24.62 73.4632 24.72C73.1232 24.82 72.7532 24.88 72.3532 24.9L70.7632 25.05L70.2532 26.07C70.1132 26.31 69.9932 26.54 69.8932 26.76C69.7932 26.98 69.7232 27.11 69.6832 27.15C69.6832 27.25 69.6032 27.45 69.4432 27.75C69.2832 28.05 69.1632 28.29 69.0832 28.47C68.9832 28.75 68.8632 29.03 68.7232 29.31C68.5832 29.57 68.4932 29.74 68.4532 29.82C68.3932 29.82 68.3532 29.84 68.3332 29.88C68.3332 29.9 68.3332 29.94 68.3332 30L68.3932 30.24C68.3932 30.34 68.3432 30.44 68.2432 30.54C68.1632 30.58 68.0832 30.65 68.0032 30.75C67.9432 30.85 67.9032 30.92 67.8832 30.96C67.9232 31 67.9432 31.05 67.9432 31.11C67.9432 31.25 67.8732 31.43 67.7332 31.65C67.7332 31.99 67.5932 32.5 67.3132 33.18C67.3332 33.54 67.3532 33.77 67.3732 33.87C67.3932 33.97 67.4432 34.01 67.5232 33.99H67.6732L68.3332 33.96C68.4732 33.9 68.5032 34.05 68.4232 34.41C68.3632 34.77 68.1932 35.32 67.9132 36.06C67.6132 36.52 67.2932 36.92 66.9532 37.26C66.6332 37.62 66.4232 37.8 66.3232 37.8ZM81.7648 38.65L81.8148 38.5C81.8148 38.1667 81.5315 37.9833 80.9648 37.95C80.2648 37.5167 79.5148 36.7833 78.7148 35.75C77.9148 34.6833 77.4148 33.8667 77.2148 33.3C77.1148 33.0333 77.0648 32.85 77.0648 32.75C77.0648 32.5833 77.1315 32.4667 77.2648 32.4C77.3982 32.3 77.5648 32.2167 77.7648 32.15C77.9648 32.05 78.1148 31.9833 78.2148 31.95C78.8148 31.55 79.2648 31.35 79.5648 31.35C79.8982 31.35 80.1815 31.5667 80.4148 32C80.8815 32.8333 81.6315 33.5333 82.6648 34.1C83.6982 34.6333 84.8482 34.9 86.1148 34.9C87.2482 34.9 88.2648 34.7 89.1648 34.3C90.0315 33.9 90.4648 33.3167 90.4648 32.55C90.4648 31.9833 90.2148 31.3 89.7148 30.5C89.6482 30.3 89.5315 30.1167 89.3648 29.95C89.1982 29.7833 88.9982 29.6167 88.7648 29.45C88.2315 29.05 87.6482 28.5333 87.0148 27.9C86.4815 27.7 85.9315 27.4333 85.3648 27.1L84.3148 26.6C83.4815 26.2 82.5482 25.5667 81.5148 24.7C80.4815 23.8 79.7648 22.9667 79.3648 22.2C78.6315 21.5 78.2648 20.4333 78.2648 19C78.2648 17.4333 78.6315 15.9667 79.3648 14.6C79.7648 13.7 80.7315 12.3167 82.2648 10.45C83.7982 8.58333 84.9315 7.41667 85.6648 6.95L86.9648 5.7C86.9982 5.56667 87.0482 5.5 87.1148 5.5C87.1815 5.46667 87.2315 5.45 87.2648 5.45C87.3648 5.38333 87.7148 5.23333 88.3148 5C88.9148 4.73333 89.5482 4.28333 90.2148 3.65C92.2482 2.65 94.0482 1.95 95.6148 1.55C97.2148 1.11667 98.5482 0.899999 99.6148 0.899999C100.915 0.966665 102.115 1.43333 103.215 2.3C104.348 3.16667 104.998 4.16667 105.165 5.3C105.232 5.63333 105.265 5.9 105.265 6.1C105.265 7.33333 104.765 8.71666 103.765 10.25C102.765 11.7833 101.698 12.8667 100.565 13.5C100.065 13.7333 99.5815 13.85 99.1148 13.85C98.5482 13.85 98.0815 13.7 97.7148 13.4C97.3815 13.1 97.2315 12.7167 97.2648 12.25C97.2648 11.95 97.3648 11.6167 97.5648 11.25C97.7982 10.85 98.2982 10.2167 99.0648 9.35C100.198 7.68333 100.765 6.48333 100.765 5.75C100.765 5.25 100.465 4.95 99.8648 4.85C99.4982 4.75 98.4982 4.9 96.8648 5.3C95.2648 5.66666 94.4648 5.93333 94.4648 6.1C94.4648 6.13333 94.4482 6.2 94.4148 6.3C94.4148 6.36667 94.3648 6.38333 94.2648 6.35C94.1315 6.31666 93.1815 6.86667 91.4148 8C89.6815 9.13333 88.7815 9.78333 88.7148 9.95C88.6815 10.1167 88.5482 10.3 88.3148 10.5C88.1148 10.6667 87.8648 10.8167 87.5648 10.95C86.9648 11.3167 86.4148 11.8167 85.9148 12.45C85.4482 13.0833 84.8315 14.0833 84.0648 15.45C83.6648 16.0167 83.3315 16.6333 83.0648 17.3C82.8315 17.9667 82.7148 18.5667 82.7148 19.1C82.7148 19.4667 82.7648 19.7833 82.8648 20.05C82.9982 20.55 83.3482 21.0167 83.9148 21.45C84.5148 21.85 85.6482 22.55 87.3148 23.55C89.0148 24.5167 90.5482 25.55 91.9148 26.65C93.2815 27.7167 94.1148 28.5667 94.4148 29.2C94.9482 29.9667 95.2148 30.9667 95.2148 32.2C95.2148 33.1667 95.0815 34.0833 94.8148 34.95C94.5148 35.5833 94.1315 36.1667 93.6648 36.7C93.1982 37.2667 92.7815 37.5333 92.4148 37.5C92.0815 37.6 91.7982 37.7167 91.5648 37.85C91.3315 38.0167 91.1315 38.1333 90.9648 38.2C90.5648 38.4333 89.5315 38.6667 87.8648 38.9C86.2315 39.1667 84.8648 39.2833 83.7648 39.25L81.7648 38.65ZM98.9407 35.37C98.8807 35.25 98.7107 35.09 98.4307 34.89C98.1507 34.69 98.0107 34.57 98.0107 34.53C98.0107 34.45 97.9607 34.34 97.8607 34.2C97.7807 34.04 97.7007 33.9 97.6207 33.78C97.4607 33.62 97.5707 33.1 97.9507 32.22C98.3307 31.34 98.8407 30.3 99.4807 29.1C99.6007 28.98 99.7507 28.77 99.9307 28.47C100.131 28.17 100.261 28 100.321 27.96C100.321 27.88 100.351 27.81 100.411 27.75C100.471 27.67 100.541 27.63 100.621 27.63L100.861 27.15C100.941 26.97 101.331 26.54 102.031 25.86C102.731 25.18 103.281 24.72 103.681 24.48C104.061 24.22 104.471 24.09 104.911 24.09C105.391 24.09 105.801 24.23 106.141 24.51L106.951 25.2C107.551 25.7 107.891 25.99 107.971 26.07L109.081 27.06L108.571 28.56C108.391 29.1 108.301 29.61 108.301 30.09C108.301 30.85 108.511 31.56 108.931 32.22C109.031 32.44 109.161 32.61 109.321 32.73C109.501 32.85 109.731 32.93 110.011 32.97C110.451 33.05 110.671 33.27 110.671 33.63C110.671 34.07 110.591 34.4 110.431 34.62C110.271 34.84 110.081 34.98 109.861 35.04C109.541 35.08 109.321 35.1 109.201 35.1C108.621 35.1 108.091 34.95 107.611 34.65C107.131 34.35 106.711 33.84 106.351 33.12C106.271 33 106.161 32.78 106.021 32.46C105.901 32.14 105.831 31.92 105.811 31.8C105.671 32 105.441 32.26 105.121 32.58C103.061 34.66 101.391 35.7 100.111 35.7C99.6707 35.7 99.2807 35.59 98.9407 35.37ZM100.591 32.88C100.911 32.92 101.531 32.56 102.451 31.8C102.551 31.72 102.661 31.63 102.781 31.53C102.901 31.41 103.031 31.29 103.171 31.17C103.731 30.71 104.161 30.33 104.461 30.03C104.781 29.71 105.101 29.33 105.421 28.89L106.081 27.81C105.881 27.37 105.701 27.08 105.541 26.94C105.381 26.78 105.221 26.7 105.061 26.7C104.661 26.7 104.161 27.06 103.561 27.78C102.961 28.48 102.241 29.55 101.401 30.99C101.181 31.35 101.001 31.73 100.861 32.13C100.721 32.51 100.631 32.76 100.591 32.88ZM121.869 35.28C120.609 35.24 119.979 34.53 119.979 33.15C119.979 32.77 120.009 32.4 120.069 32.04C120.109 31.6 120.129 31.29 120.129 31.11V30.96V30.63C120.069 30.23 119.939 30.03 119.739 30.03C119.379 30.03 118.709 30.38 117.729 31.08C116.769 31.76 115.759 32.58 114.699 33.54C114.379 33.88 114.109 34.2 113.889 34.5C113.689 34.76 113.539 34.92 113.439 34.98C113.339 35.04 113.179 35.07 112.959 35.07C112.679 35.03 112.359 34.82 111.999 34.44C111.639 34.06 111.399 33.72 111.279 33.42C111.279 32.86 111.379 32.33 111.579 31.83C111.779 31.31 112.079 30.66 112.479 29.88C112.659 29.28 112.889 28.68 113.169 28.08C113.469 27.38 113.679 26.85 113.799 26.49C113.939 26.11 114.029 25.72 114.069 25.32C114.069 25.3 114.059 25.29 114.039 25.29C114.039 25.21 114.069 25.14 114.129 25.08C114.189 25.02 114.259 24.99 114.339 24.99C114.379 24.93 114.499 24.9 114.699 24.9C115.219 24.9 115.669 25.04 116.049 25.32C116.429 25.6 116.619 26.03 116.619 26.61C116.619 26.91 116.559 27.2 116.439 27.48C116.339 27.74 116.139 28.18 115.839 28.8L115.509 29.46C115.449 29.58 115.359 29.76 115.239 30C115.119 30.22 115.059 30.36 115.059 30.42C115.559 30.08 116.149 29.63 116.829 29.07C117.829 28.27 118.649 27.65 119.289 27.21C119.929 26.77 120.399 26.55 120.699 26.55C120.959 26.55 121.319 26.7 121.779 27C122.259 27.28 122.539 27.54 122.619 27.78C122.619 27.92 122.599 28.13 122.559 28.41C122.539 28.69 122.519 28.94 122.499 29.16L122.529 30.09C122.549 30.25 122.559 30.49 122.559 30.81C122.559 31.45 122.519 31.9 122.439 32.16C122.459 32.18 122.479 32.21 122.499 32.25C122.519 32.29 122.529 32.32 122.529 32.34L122.499 32.4C122.519 32.6 122.629 32.92 122.829 33.36C123.029 33.8 123.129 34.04 123.129 34.08C123.129 34.3 122.979 34.55 122.679 34.83C122.399 35.09 122.129 35.24 121.869 35.28ZM129.279 36.18C128.839 36.06 128.269 35.69 127.569 35.07C127.229 34.63 127.029 34.24 126.969 33.9C126.909 33.54 126.879 32.84 126.879 31.8C126.879 31.32 127.119 30.12 127.599 28.2C127.619 28.12 127.689 27.85 127.809 27.39C127.869 27.17 127.789 27.03 127.569 26.97C127.349 26.91 127.039 26.88 126.639 26.88C126.299 26.88 126.099 26.86 126.039 26.82C125.979 26.8 125.939 26.71 125.919 26.55C125.919 26.39 125.919 26.28 125.919 26.22C125.919 26.16 125.869 26.1 125.769 26.04C125.689 25.98 125.629 25.92 125.589 25.86C125.529 25.78 125.579 25.63 125.739 25.41C125.899 25.19 126.079 25.06 126.279 25.02C126.399 25 126.659 24.97 127.059 24.93C127.459 24.89 127.839 24.81 128.199 24.69C128.579 24.57 128.859 24.4 129.039 24.18C129.299 23.5 129.599 22.78 129.939 22.02C130.299 21.26 130.549 20.81 130.689 20.67C131.009 20.51 131.299 20.43 131.559 20.43C131.999 20.43 132.339 20.61 132.579 20.97C132.639 21.05 132.709 21.13 132.789 21.21C132.869 21.29 132.909 21.38 132.909 21.48C132.909 21.62 132.839 21.84 132.699 22.14C132.579 22.44 132.329 22.93 131.949 23.61L131.559 24.36C131.619 24.38 131.759 24.39 131.979 24.39C132.199 24.39 132.379 24.38 132.519 24.36C132.959 24.28 133.299 24.24 133.539 24.24C133.719 24.24 133.849 24.25 133.929 24.27C134.769 24.27 135.229 24.73 135.309 25.65C135.349 25.89 135.259 26.09 135.039 26.25C134.839 26.39 134.479 26.46 133.959 26.46C131.899 26.54 130.859 26.63 130.839 26.73C130.739 26.79 130.579 27.1 130.359 27.66C130.139 28.22 129.959 28.75 129.819 29.25C129.579 30.29 129.459 31.27 129.459 32.19C129.459 33.07 129.589 33.64 129.849 33.9C129.929 33.98 130.039 34.02 130.179 34.02C130.539 34.02 131.049 33.75 131.709 33.21C131.929 33.01 132.169 32.91 132.429 32.91C132.649 32.91 132.819 32.99 132.939 33.15C133.079 33.31 133.149 33.52 133.149 33.78C133.149 34.08 133.049 34.37 132.849 34.65C132.549 35.11 132.099 35.49 131.499 35.79C130.899 36.09 130.329 36.24 129.789 36.24C129.549 36.24 129.379 36.22 129.279 36.18ZM137.981 35.58C137.781 35.62 137.601 35.64 137.441 35.64C137.181 35.64 136.941 35.62 136.721 35.58C136.501 35.52 136.391 35.45 136.391 35.37C136.391 35.31 136.381 35.27 136.361 35.25C136.341 35.23 136.301 35.22 136.241 35.22C136.181 35.16 136.041 35.06 135.821 34.92C135.621 34.76 135.451 34.65 135.311 34.59C135.071 34.25 134.951 33.88 134.951 33.48C134.951 33.1 135.071 32.49 135.311 31.65C135.331 30.87 135.611 30 136.151 29.04C136.711 28.06 137.381 27.16 138.161 26.34C138.941 25.5 139.641 24.9 140.261 24.54C140.561 24.24 140.981 24.09 141.521 24.09C141.941 24.09 142.311 24.18 142.631 24.36C142.891 24.52 143.211 24.86 143.591 25.38C143.991 25.9 144.291 26.37 144.491 26.79C144.531 26.93 144.581 27.12 144.641 27.36C144.721 27.6 144.761 27.89 144.761 28.23L144.701 29.07C144.461 29.89 144.341 30.63 144.341 31.29C144.301 31.57 144.321 31.8 144.401 31.98C144.481 32.14 144.591 32.22 144.731 32.22C144.831 32.22 144.941 32.19 145.061 32.13C145.181 32.07 145.321 32.04 145.481 32.04C145.741 32.04 145.961 32.12 146.141 32.28C146.321 32.44 146.411 32.64 146.411 32.88C146.411 33.08 146.361 33.27 146.261 33.45C146.081 33.85 145.741 34.21 145.241 34.53C144.761 34.85 144.311 35.01 143.891 35.01C143.551 35.01 143.221 34.83 142.901 34.47C142.601 34.11 142.361 33.64 142.181 33.06L142.001 32.37L140.921 33.36L140.231 34.05C139.911 34.37 139.731 34.56 139.691 34.62C139.591 34.78 139.411 34.93 139.151 35.07C138.911 35.21 138.521 35.38 137.981 35.58ZM138.791 32.7C139.151 32.5 139.451 32.25 139.691 31.95C139.951 31.65 140.271 31.23 140.651 30.69C140.731 30.57 140.811 30.45 140.891 30.33C140.971 30.19 141.071 30.05 141.191 29.91C141.531 29.45 141.771 29.08 141.911 28.8C142.071 28.52 142.191 28.22 142.271 27.9C142.191 27.64 142.071 27.4 141.911 27.18C141.771 26.94 141.641 26.81 141.521 26.79C140.961 26.79 140.201 27.45 139.241 28.77C139.141 28.91 138.981 29.16 138.761 29.52C138.561 29.88 138.431 30.12 138.371 30.24C138.271 30.38 138.131 30.72 137.951 31.26C137.791 31.78 137.711 32.12 137.711 32.28C137.711 32.72 137.841 32.94 138.101 32.94C138.301 32.94 138.531 32.86 138.791 32.7Z" fill="#D00000"/>
</svg>
