<svg width="250" height="260" viewBox="0 0 250 260" fill="none" xmlns="http://www.w3.org/2000/svg">
<g clip-path="url(#clip0)">
<path d="M232.435 0L230.103 2.25419L204.739 26.7909L161.74 68.3877L163.765 246.443L0.213623 206.021V88.1727L61.9106 16.7751L232.435 0Z" fill="#373E46"/>
<path opacity="0.1" d="M232.435 0L230.103 2.25419L204.739 26.7909L161.74 68.3877L163.765 246.443L0.213623 206.021V88.1727L61.9106 16.7751L232.435 0Z" fill="black"/>
<path d="M250 113.119L245.289 233.978L76.4777 259.785L0.213623 206.021V89.8921L161.74 68.3877L250 113.119Z" fill="#373E46"/>
<path d="M249.786 113.119L245.072 233.978L76.2641 259.785L0 206.021V89.8921L161.526 68.3877L249.786 113.119Z" fill="#373E46"/>
<path opacity="0.1" d="M76.4777 135.053V259.786L0.213623 206.021V89.969L76.4777 135.053Z" fill="black"/>
<path opacity="0.1" d="M230.103 2.25418L204.739 26.7909L82.4774 40.4313L60.6252 18.9236L230.103 2.25418Z" fill="black"/>
<path opacity="0.1" d="M161.74 68.3877L163.453 247.743L245.289 233.978L250 113.119L161.74 68.3877Z" fill="black"/>
<path d="M250 113.119L217.01 110.106L137.763 70.7187L161.74 68.3877L250 113.119Z" fill="#373E46"/>
<path d="M61.9108 16.7751L83.7629 38.2796L230.291 21.9367L232.435 0L61.9108 16.7751Z" fill="#373E46"/>
<path d="M110.967 83.2257C110.972 84.2451 110.865 85.2619 110.648 86.2579C110.248 88.0604 109.489 89.7628 108.416 91.2626C108.053 91.7646 107.659 92.2426 107.235 92.6939C105.023 95.0478 102.05 96.5375 98.8466 96.8981C98.3236 96.9588 97.7975 96.9887 97.2709 96.9877C95.5532 96.9872 93.851 96.6613 92.2537 96.0271C91.7962 95.8482 91.349 95.644 90.914 95.4156C87.8134 93.7833 85.4506 91.0242 84.3083 87.702C84.1418 87.2263 84.0043 86.7408 83.8968 86.2483C83.8107 85.8705 83.7437 85.4862 83.6895 85.0988C83.6051 84.4748 83.5625 83.8458 83.5619 83.2161C83.5599 81.8531 83.761 80.4976 84.1584 79.1944C84.2349 78.9318 84.3242 78.6725 84.4199 78.4131C85.2983 76.0495 86.8068 73.9736 88.7805 72.412C90.7543 70.8505 93.1175 69.8633 95.6121 69.5583C98.1067 69.2533 100.637 69.6423 102.926 70.6826C105.216 71.723 107.176 73.3748 108.594 75.4577C110.15 77.7462 110.978 80.4549 110.967 83.2257Z" fill="#EEEFF0"/>
<path d="M109.899 93.1165C119.956 93.1165 128.108 81.7555 128.108 67.7409C128.108 53.7263 119.956 42.3653 109.899 42.3653C99.8419 42.3653 91.6892 53.7263 91.6892 67.7409C91.6892 81.7555 99.8419 93.1165 109.899 93.1165Z" fill="#D00000"/>
<path opacity="0.1" d="M109.899 93.1165C119.956 93.1165 128.108 81.7555 128.108 67.7409C128.108 53.7263 119.956 42.3653 109.899 42.3653C99.8419 42.3653 91.6892 53.7263 91.6892 67.7409C91.6892 81.7555 99.8419 93.1165 109.899 93.1165Z" fill="black"/>
<path d="M140.95 6.6665C133.652 6.66655 126.508 8.76871 120.365 12.7234C114.222 16.6781 109.339 22.3193 106.294 28.9772C103.25 35.6351 102.173 43.0302 103.191 50.2844C104.208 57.5386 107.278 64.3473 112.036 69.9022C112.773 70.7668 113.551 71.5961 114.364 72.3773C118.694 76.6202 123.97 79.7642 129.754 81.5478C130.711 81.8456 131.7 82.1081 132.692 82.3227C137.764 83.4458 143.011 83.522 148.114 82.5468C149.128 82.3579 150.136 82.1241 151.122 81.8456C157.117 80.1823 162.615 77.0662 167.13 72.7712C168.013 71.9365 168.854 71.0603 169.653 70.1424C174.476 64.6076 177.608 57.7956 178.675 50.5209C179.743 43.2463 178.7 35.8169 175.673 29.1213C172.645 22.4258 167.76 16.7474 161.602 12.7652C155.445 8.78311 148.275 6.66579 140.95 6.6665ZM140.95 13.9798C140.441 13.9798 139.944 13.8284 139.522 13.5449C139.099 13.2613 138.769 12.8582 138.575 12.3866C138.38 11.9151 138.329 11.3962 138.428 10.8955C138.528 10.3949 138.772 9.93505 139.132 9.57412C139.491 9.21319 139.95 8.9674 140.448 8.86782C140.947 8.76824 141.464 8.81935 141.934 9.01468C142.403 9.21001 142.805 9.5408 143.087 9.96521C143.37 10.3896 143.521 10.8886 143.521 11.399C143.521 12.0835 143.25 12.7399 142.768 13.2239C142.286 13.7079 141.632 13.9798 140.95 13.9798Z" fill="#D00000"/>
<path d="M175.235 93.1197C182.334 93.1197 188.089 84.2617 188.089 73.3348C188.089 62.4078 182.334 53.5498 175.235 53.5498C168.136 53.5498 162.381 62.4078 162.381 73.3348C162.381 84.2617 168.136 93.1197 175.235 93.1197Z" fill="#975656"/>
<path opacity="0.1" d="M175.235 83.8852C179.021 83.8852 182.09 79.1616 182.09 73.3347C182.09 67.5078 179.021 62.7842 175.235 62.7842C171.449 62.7842 168.381 67.5078 168.381 73.3347C168.381 79.1616 171.449 83.8852 175.235 83.8852Z" fill="black"/>
<path d="M140.959 189.032C165.569 189.032 185.518 166.887 185.518 139.571C185.518 112.254 165.569 90.1099 140.959 90.1099C116.35 90.1099 96.4001 112.254 96.4001 139.571C96.4001 166.887 116.35 189.032 140.959 189.032Z" fill="#975656"/>
<path opacity="0.1" d="M140.959 189.032C165.569 189.032 185.518 166.887 185.518 139.571C185.518 112.254 165.569 90.1099 140.959 90.1099C116.35 90.1099 96.4001 112.254 96.4001 139.571C96.4001 166.887 116.35 189.032 140.959 189.032Z" fill="black"/>
<path d="M106.684 93.1197C113.783 93.1197 119.538 84.2617 119.538 73.3348C119.538 62.4078 113.783 53.5498 106.684 53.5498C99.5844 53.5498 93.8293 62.4078 93.8293 73.3348C93.8293 84.2617 99.5844 93.1197 106.684 93.1197Z" fill="#975656"/>
<path opacity="0.1" d="M106.684 83.8852C110.469 83.8852 113.538 79.1616 113.538 73.3347C113.538 67.5078 110.469 62.7842 106.684 62.7842C102.898 62.7842 99.8291 67.5078 99.8291 73.3347C99.8291 79.1616 102.898 83.8852 106.684 83.8852Z" fill="black"/>
<path opacity="0.1" d="M111.803 69.7965L112.249 21.719L109.478 67.3214L111.803 69.7965Z" fill="black"/>
<path opacity="0.1" d="M130.673 21.719L130.134 79.7291C129.142 79.5145 128.159 79.252 127.196 78.9542L130.673 21.719Z" fill="black"/>
<path opacity="0.1" d="M149.096 21.719L148.563 79.2648C147.578 79.5433 146.57 79.7771 145.556 79.966L149.096 21.719Z" fill="black"/>
<path opacity="0.1" d="M167.095 67.5616L167.52 21.719L164.572 70.1904L167.095 67.5616Z" fill="black"/>
<path opacity="0.1" d="M175.264 44.0847H106.655C104.541 44.0847 102.827 45.805 102.827 47.9271V65.1889C102.827 67.311 104.541 69.0313 106.655 69.0313H175.264C177.378 69.0313 179.091 67.311 179.091 65.1889V47.9271C179.091 45.805 177.378 44.0847 175.264 44.0847Z" fill="black"/>
<path d="M176.093 80.2158C176.083 89.1398 172.699 97.7273 166.625 104.243C160.55 110.759 152.239 114.717 143.369 115.318C134.5 115.918 125.734 113.117 118.843 107.479C111.951 101.842 107.449 93.7886 106.245 84.9468C105.041 76.105 107.225 67.134 112.356 59.8465C117.487 52.559 125.182 47.4984 133.886 45.6872C142.591 43.8761 151.656 45.4494 159.25 50.0893C166.843 54.7292 172.399 62.0897 174.795 70.6835C175.659 73.7865 176.096 76.9937 176.093 80.2158Z" fill="#975656"/>
<path opacity="0.1" d="M174.795 70.6835C174.517 70.7297 174.235 70.7533 173.953 70.754H107.972C107.689 70.7533 107.406 70.7297 107.127 70.6835C108.843 64.5618 112.174 59.0188 116.768 54.6402C121.362 50.2616 127.049 47.2099 133.228 45.8074H148.694C154.873 47.2099 160.56 50.2616 165.154 54.6402C169.748 59.0188 173.079 64.5618 174.795 70.6835Z" fill="black"/>
<path d="M173.95 44.946H107.969C105.129 44.946 102.827 47.257 102.827 50.1076V64.731C102.827 67.5817 105.129 69.8926 107.969 69.8926H173.95C176.789 69.8926 179.091 67.5817 179.091 64.731V50.1076C179.091 47.257 176.789 44.946 173.95 44.946Z" fill="#EEEFF0"/>
<path opacity="0.1" d="M111.254 67.3118L112.249 50.969L112.1 67.3118H111.254Z" fill="black"/>
<path opacity="0.1" d="M130.523 67.3118L130.673 50.969L129.677 67.3118H130.523Z" fill="black"/>
<path opacity="0.1" d="M149.096 50.969L148.943 67.3118H148.101L149.096 50.969Z" fill="black"/>
<path opacity="0.1" d="M166.524 67.3118L167.519 50.969L167.369 67.3118H166.524Z" fill="black"/>
<path opacity="0.1" d="M127.678 80.648C130.281 80.648 132.392 78.5292 132.392 75.9155C132.392 73.3018 130.281 71.183 127.678 71.183C125.074 71.183 122.964 73.3018 122.964 75.9155C122.964 78.5292 125.074 80.648 127.678 80.648Z" fill="black"/>
<path d="M127.678 80.2158C130.281 80.2158 132.392 78.097 132.392 75.4833C132.392 72.8696 130.281 70.7508 127.678 70.7508C125.074 70.7508 122.964 72.8696 122.964 75.4833C122.964 78.097 125.074 80.2158 127.678 80.2158Z" fill="#EEEFF0"/>
<path d="M127.678 77.6349C128.862 77.6349 129.821 76.6716 129.821 75.4832C129.821 74.2948 128.862 73.3315 127.678 73.3315C126.494 73.3315 125.534 74.2948 125.534 75.4832C125.534 76.6716 126.494 77.6349 127.678 77.6349Z" fill="#373E46"/>
<path d="M128.105 75.0542C128.341 75.0542 128.532 74.8621 128.532 74.6251C128.532 74.3882 128.341 74.1961 128.105 74.1961C127.869 74.1961 127.678 74.3882 127.678 74.6251C127.678 74.8621 127.869 75.0542 128.105 75.0542Z" fill="white"/>
<path opacity="0.1" d="M155.957 80.648C158.561 80.648 160.671 78.5292 160.671 75.9155C160.671 73.3018 158.561 71.183 155.957 71.183C153.353 71.183 151.243 73.3018 151.243 75.9155C151.243 78.5292 153.353 80.648 155.957 80.648Z" fill="black"/>
<path d="M155.957 80.2158C158.561 80.2158 160.671 78.097 160.671 75.4833C160.671 72.8696 158.561 70.7508 155.957 70.7508C153.353 70.7508 151.243 72.8696 151.243 75.4833C151.243 78.097 153.353 80.2158 155.957 80.2158Z" fill="#EEEFF0"/>
<path d="M155.957 77.6349C157.141 77.6349 158.1 76.6716 158.1 75.4832C158.1 74.2948 157.141 73.3315 155.957 73.3315C154.773 73.3315 153.814 74.2948 153.814 75.4832C153.814 76.6716 154.773 77.6349 155.957 77.6349Z" fill="#373E46"/>
<path d="M155.099 75.0542C155.335 75.0542 155.526 74.8621 155.526 74.6251C155.526 74.3882 155.335 74.1961 155.099 74.1961C154.863 74.1961 154.672 74.3882 154.672 74.6251C154.672 74.8621 154.863 75.0542 155.099 75.0542Z" fill="white"/>
<path opacity="0.1" d="M141.817 104.301C149.626 104.301 155.957 97.9459 155.957 90.1066C155.957 82.2673 149.626 75.9123 141.817 75.9123C134.008 75.9123 127.678 82.2673 127.678 90.1066C127.678 97.9459 134.008 104.301 141.817 104.301Z" fill="black"/>
<path d="M141.817 103.443C149.626 103.443 155.957 97.0878 155.957 89.2485C155.957 81.4092 149.626 75.0542 141.817 75.0542C134.008 75.0542 127.678 81.4092 127.678 89.2485C127.678 97.0878 134.008 103.443 141.817 103.443Z" fill="#D00000"/>
<path d="M249.786 113.763L247.837 155.785L247.05 172.766L244.217 233.763L75.406 260V134.838L249.786 113.763Z" fill="#373E46"/>
<path d="M0.213623 89.8921L32.7447 85.5599L101.328 122.581L76.4777 135.053L0.213623 89.8921Z" fill="#373E46"/>
<path opacity="0.05" d="M0.213623 89.8921L32.7447 85.5599L101.328 122.581L76.4777 135.053L0.213623 89.8921Z" fill="black"/>
<path opacity="0.1" d="M77.0997 100.731L72.781 98.4094C72.6041 98.3161 72.4025 98.2808 72.2046 98.3083C72.0067 98.3359 71.8223 98.425 71.6774 98.5631L68.1464 101.967C68.0006 102.102 67.8166 102.188 67.6198 102.214C67.423 102.239 67.2232 102.203 67.048 102.109C66.8728 102.015 66.7309 101.869 66.642 101.691C66.5531 101.513 66.5215 101.312 66.5516 101.115L67.416 96.2769C67.4497 96.0795 67.4211 95.8764 67.3341 95.6961C67.2472 95.5159 67.1063 95.3674 66.9312 95.2715L62.6124 92.95C62.4414 92.8514 62.3049 92.702 62.2217 92.5225C62.1384 92.343 62.1125 92.142 62.1474 91.9471C62.1824 91.7522 62.2764 91.5729 62.4167 91.4338C62.5571 91.2946 62.7368 91.2024 62.9314 91.1697L67.7828 90.5005C67.9806 90.4718 68.1645 90.3816 68.3087 90.2427C68.4528 90.1037 68.55 89.9229 68.5866 89.7256L69.4478 84.8875C69.4881 84.6933 69.5872 84.5165 69.7316 84.3811C69.876 84.2458 70.0586 84.1586 70.2543 84.1316C70.45 84.1046 70.6492 84.1391 70.8246 84.2303C71 84.3214 71.143 84.4649 71.234 84.6409L73.3679 89.066C73.4566 89.2455 73.599 89.3926 73.7752 89.4867C73.9513 89.5809 74.1524 89.6174 74.3503 89.5912L79.1985 88.9219C79.3945 88.9005 79.5924 88.9404 79.765 89.0361C79.9376 89.1318 80.0766 89.2788 80.1628 89.4568C80.2491 89.6349 80.2784 89.8353 80.2468 90.0307C80.2152 90.2262 80.1242 90.407 79.9863 90.5486L76.4522 93.9522C76.3093 94.0925 76.2136 94.2741 76.1787 94.4716C76.1438 94.6692 76.1714 94.8727 76.2577 95.0537L78.3915 99.4788C78.4703 99.6586 78.4923 99.8584 78.4546 100.051C78.4168 100.244 78.3211 100.42 78.1803 100.557C78.0395 100.693 77.8604 100.783 77.6672 100.814C77.474 100.845 77.276 100.816 77.0997 100.731Z" fill="black"/>
<path d="M76.4585 99.8343L72.631 97.7786C72.4745 97.6945 72.2955 97.6623 72.1196 97.6864C71.9438 97.7106 71.78 97.7899 71.6517 97.9131L68.5195 100.933C68.3918 101.056 68.2285 101.135 68.053 101.159C67.8776 101.183 67.699 101.151 67.5429 101.067C67.3868 100.984 67.2611 100.852 67.1839 100.692C67.1066 100.532 67.0818 100.352 67.1129 100.177L67.8784 95.8862C67.9101 95.7107 67.8855 95.5297 67.8081 95.3691C67.7308 95.2086 67.6046 95.0768 67.4478 94.9929L63.6203 92.9372C63.4633 92.8537 63.3368 92.7223 63.2591 92.562C63.1813 92.4017 63.1562 92.2207 63.1874 92.0452C63.2186 91.8697 63.3045 91.7086 63.4327 91.5852C63.561 91.4618 63.7249 91.3825 63.9009 91.3586L68.2038 90.7631C68.3792 90.7388 68.5425 90.6595 68.6702 90.5364C68.798 90.4133 68.8837 90.2528 68.915 90.0779L69.6806 85.784C69.7078 85.6042 69.7923 85.4381 69.9214 85.3106C70.0505 85.183 70.2173 85.1008 70.3968 85.0763C70.5763 85.0518 70.7589 85.0863 70.9173 85.1746C71.0756 85.2629 71.2013 85.4003 71.2754 85.5663L73.17 89.4887C73.2469 89.6494 73.3727 89.7813 73.5293 89.8654C73.6858 89.9494 73.865 89.9812 74.0408 89.9562L78.3404 89.3638C78.516 89.339 78.6949 89.3706 78.8515 89.4542C79.008 89.5378 79.1342 89.6691 79.2118 89.8292C79.2894 89.9892 79.3145 90.1699 79.2834 90.3452C79.2523 90.5204 79.1668 90.6813 79.0389 90.8047L75.8812 93.8178C75.7553 93.9392 75.6706 94.0973 75.6392 94.2697C75.6077 94.442 75.631 94.62 75.7058 94.7783L77.6004 98.704C77.6833 98.8637 77.7129 99.0459 77.685 99.2239C77.6571 99.4018 77.5731 99.566 77.4453 99.6925C77.3176 99.819 77.1528 99.901 76.9752 99.9265C76.7976 99.952 76.6165 99.9197 76.4585 99.8343Z" fill="#EEEFF0"/>
<path opacity="0.1" d="M236.039 224.164L233.372 222.729C233.264 222.67 233.139 222.647 233.016 222.664C232.893 222.68 232.779 222.736 232.69 222.822L230.505 224.929C230.416 225.015 230.302 225.071 230.18 225.088C230.057 225.104 229.932 225.082 229.823 225.023C229.714 224.964 229.627 224.872 229.573 224.761C229.52 224.649 229.503 224.523 229.526 224.4L230.058 221.41C230.08 221.288 230.063 221.162 230.009 221.05C229.955 220.939 229.868 220.847 229.759 220.789L227.089 219.354C226.98 219.295 226.893 219.203 226.839 219.091C226.786 218.98 226.769 218.854 226.791 218.732C226.813 218.61 226.872 218.498 226.961 218.412C227.05 218.326 227.164 218.27 227.287 218.253L230.285 217.84C230.408 217.822 230.522 217.766 230.611 217.68C230.7 217.594 230.76 217.482 230.782 217.359L231.315 214.369C231.337 214.247 231.398 214.135 231.487 214.05C231.576 213.964 231.69 213.909 231.812 213.892C231.934 213.875 232.058 213.897 232.167 213.955C232.276 214.013 232.364 214.104 232.419 214.215L233.736 216.953C233.792 217.063 233.88 217.154 233.989 217.211C234.099 217.269 234.223 217.29 234.345 217.273L237.344 216.86C237.466 216.842 237.591 216.864 237.701 216.922C237.81 216.981 237.898 217.072 237.952 217.184C238.006 217.296 238.024 217.423 238.001 217.545C237.979 217.668 237.918 217.78 237.828 217.865L235.647 219.975C235.557 220.061 235.497 220.174 235.475 220.296C235.452 220.419 235.469 220.545 235.522 220.657L236.843 223.392C236.895 223.503 236.911 223.629 236.888 223.75C236.866 223.871 236.806 223.982 236.717 224.067C236.628 224.153 236.515 224.208 236.393 224.225C236.272 224.242 236.148 224.221 236.039 224.164Z" fill="black"/>
<path d="M235.647 223.61L233.277 222.329C233.18 222.277 233.07 222.257 232.962 222.272C232.854 222.287 232.753 222.336 232.674 222.412L230.738 224.279C230.659 224.355 230.558 224.403 230.449 224.418C230.341 224.433 230.231 224.413 230.134 224.361C230.038 224.309 229.96 224.228 229.912 224.13C229.864 224.031 229.848 223.92 229.867 223.811L230.339 221.157C230.359 221.049 230.344 220.937 230.296 220.838C230.249 220.739 230.171 220.658 230.074 220.606L227.708 219.335C227.617 219.28 227.545 219.199 227.502 219.103C227.459 219.006 227.446 218.898 227.465 218.794C227.484 218.69 227.534 218.593 227.609 218.519C227.683 218.444 227.779 218.393 227.883 218.374L230.54 218.006C230.649 217.992 230.75 217.943 230.829 217.867C230.909 217.791 230.961 217.692 230.98 217.584L231.455 214.929C231.475 214.821 231.528 214.722 231.608 214.645C231.687 214.569 231.788 214.52 231.897 214.505C232.005 214.491 232.116 214.51 232.212 214.562C232.309 214.614 232.387 214.696 232.435 214.795L233.602 217.222C233.65 217.321 233.728 217.402 233.825 217.454C233.922 217.505 234.032 217.525 234.141 217.51L236.801 217.142C236.91 217.127 237.021 217.147 237.117 217.199C237.214 217.251 237.292 217.332 237.34 217.431C237.387 217.531 237.403 217.642 237.383 217.751C237.364 217.859 237.311 217.959 237.232 218.035L235.296 219.902C235.216 219.978 235.163 220.077 235.144 220.185C235.124 220.293 235.14 220.405 235.187 220.504L236.358 222.931C236.404 223.03 236.419 223.14 236.399 223.248C236.379 223.355 236.326 223.453 236.247 223.528C236.168 223.604 236.068 223.652 235.96 223.667C235.852 223.681 235.742 223.661 235.647 223.61Z" fill="#D00000"/>
<path opacity="0.1" d="M96.7924 160.076L94.1259 158.642C94.0165 158.584 93.8917 158.562 93.7692 158.579C93.6467 158.596 93.5327 158.652 93.4433 158.738L91.2584 160.841C91.1694 160.928 91.0555 160.983 90.933 161C90.8105 161.017 90.6858 160.995 90.5768 160.936C90.4679 160.877 90.3804 160.785 90.3269 160.673C90.2734 160.561 90.2567 160.435 90.2792 160.313L90.8119 157.322C90.8333 157.2 90.8159 157.075 90.7621 156.963C90.7083 156.852 90.6208 156.76 90.5121 156.701L87.8423 155.267C87.7331 155.208 87.6452 155.117 87.5912 155.005C87.5373 154.893 87.52 154.767 87.542 154.645C87.564 154.523 87.6241 154.411 87.7136 154.325C87.8032 154.24 87.9175 154.185 88.0401 154.168L91.0383 153.752C91.1607 153.735 91.2747 153.68 91.3641 153.595C91.4534 153.509 91.5136 153.397 91.5359 153.275L92.0686 150.281C92.0914 150.16 92.1518 150.048 92.2411 149.963C92.3304 149.878 92.4442 149.823 92.5663 149.807C92.6885 149.79 92.8127 149.812 92.9214 149.87C93.0302 149.929 93.1179 150.02 93.1722 150.131L94.4927 152.865C94.5469 152.976 94.6348 153.067 94.7437 153.125C94.8526 153.182 94.977 153.203 95.0987 153.185L98.097 152.769C98.2196 152.753 98.3443 152.775 98.4533 152.834C98.5622 152.893 98.6498 152.985 98.7036 153.097C98.7574 153.209 98.7746 153.335 98.7527 153.457C98.7308 153.579 98.671 153.692 98.5818 153.778L96.4001 155.881C96.3096 155.97 96.2504 156.086 96.2314 156.211C96.2124 156.337 96.2347 156.465 96.2949 156.576L97.6122 159.311C97.6657 159.424 97.682 159.551 97.6585 159.674C97.6351 159.797 97.5732 159.91 97.4818 159.995C97.3904 160.08 97.2743 160.134 97.1503 160.149C97.0263 160.163 96.901 160.138 96.7924 160.076Z" fill="black"/>
<path d="M96.4001 159.525L94.0334 158.245C93.9363 158.193 93.8257 158.174 93.7171 158.189C93.6084 158.204 93.5072 158.252 93.4274 158.328L91.4913 160.195C91.4121 160.27 91.3111 160.319 91.2027 160.334C91.0943 160.349 90.984 160.329 90.8875 160.277C90.791 160.225 90.7133 160.144 90.6654 160.045C90.6174 159.947 90.6017 159.835 90.6205 159.727L91.0926 157.076C91.1128 156.968 91.098 156.856 91.0503 156.757C91.0027 156.658 90.9247 156.577 90.8278 156.525L88.4611 155.244C88.369 155.191 88.2957 155.11 88.2511 155.013C88.2065 154.916 88.1929 154.807 88.2121 154.702C88.2313 154.597 88.2824 154.5 88.3583 154.425C88.4343 154.351 88.5315 154.301 88.6366 154.284L91.2935 153.915C91.4025 153.901 91.5039 153.851 91.5831 153.775C91.6622 153.698 91.715 153.598 91.7337 153.49L92.2089 150.838C92.2286 150.73 92.2818 150.631 92.361 150.555C92.4402 150.479 92.5414 150.43 92.65 150.415C92.7586 150.4 92.8691 150.42 92.9658 150.472C93.0624 150.524 93.1403 150.605 93.1882 150.704L94.3556 153.128C94.4032 153.227 94.4812 153.309 94.5781 153.36C94.675 153.412 94.7859 153.432 94.8946 153.416L97.5707 153.054C97.6794 153.038 97.7905 153.057 97.8877 153.109C97.9849 153.16 98.0632 153.241 98.1112 153.341C98.1592 153.44 98.1745 153.552 98.1547 153.661C98.1349 153.769 98.0812 153.869 98.0013 153.944L96.0652 155.811C95.9856 155.887 95.9323 155.987 95.9128 156.096C95.8933 156.205 95.9087 156.317 95.9567 156.416L97.1273 158.84C97.1779 158.941 97.1946 159.055 97.1751 159.166C97.1555 159.277 97.1008 159.379 97.0189 159.456C96.9371 159.533 96.8326 159.581 96.7211 159.594C96.6095 159.606 96.4969 159.582 96.4001 159.525Z" fill="#D00000"/>
<path opacity="0.1" d="M236.039 198.788L233.372 197.353C233.264 197.294 233.139 197.271 233.016 197.288C232.893 197.305 232.779 197.36 232.69 197.446L230.505 199.55C230.416 199.636 230.303 199.691 230.18 199.708C230.058 199.725 229.934 199.703 229.825 199.644C229.717 199.586 229.629 199.495 229.575 199.384C229.522 199.272 229.504 199.147 229.526 199.025L230.058 196.034C230.084 195.909 230.068 195.78 230.014 195.664C229.96 195.549 229.871 195.454 229.759 195.394L227.089 193.963C226.98 193.904 226.893 193.812 226.839 193.7C226.786 193.588 226.769 193.462 226.791 193.34C226.813 193.218 226.872 193.106 226.961 193.02C227.05 192.934 227.164 192.878 227.287 192.861L230.285 192.445C230.407 192.428 230.522 192.373 230.611 192.288C230.701 192.202 230.761 192.09 230.782 191.968L231.315 188.977C231.337 188.855 231.398 188.744 231.487 188.658C231.576 188.573 231.69 188.517 231.812 188.5C231.934 188.483 232.058 188.505 232.167 188.563C232.276 188.621 232.364 188.712 232.419 188.823L233.736 191.558C233.791 191.669 233.88 191.759 233.989 191.817C234.098 191.874 234.223 191.896 234.345 191.878L237.344 191.465C237.466 191.447 237.591 191.469 237.701 191.527C237.81 191.586 237.898 191.678 237.952 191.79C238.006 191.902 238.024 192.028 238.001 192.15C237.979 192.273 237.918 192.385 237.828 192.47L235.647 194.574C235.557 194.66 235.497 194.773 235.475 194.895C235.452 195.017 235.469 195.144 235.522 195.256L236.843 197.991C236.905 198.103 236.928 198.233 236.91 198.36C236.892 198.487 236.833 198.605 236.742 198.695C236.651 198.785 236.533 198.843 236.406 198.86C236.279 198.877 236.15 198.851 236.039 198.788Z" fill="black"/>
<path d="M235.647 198.234L233.277 196.953C233.181 196.901 233.07 196.881 232.962 196.896C232.853 196.91 232.752 196.96 232.674 197.036L230.738 198.903C230.659 198.979 230.558 199.028 230.449 199.042C230.341 199.057 230.231 199.037 230.134 198.985C230.038 198.934 229.96 198.853 229.912 198.754C229.864 198.655 229.848 198.544 229.867 198.436L230.339 195.781C230.359 195.673 230.344 195.562 230.296 195.463C230.249 195.364 230.171 195.282 230.074 195.23L227.708 193.95C227.617 193.895 227.545 193.814 227.502 193.717C227.459 193.621 227.446 193.513 227.465 193.409C227.484 193.304 227.534 193.208 227.609 193.133C227.683 193.058 227.779 193.008 227.883 192.989L230.54 192.621C230.649 192.607 230.75 192.558 230.829 192.482C230.909 192.406 230.961 192.307 230.98 192.198L231.455 189.544C231.475 189.436 231.528 189.336 231.608 189.26C231.687 189.184 231.788 189.135 231.897 189.12C232.005 189.105 232.116 189.125 232.212 189.177C232.309 189.229 232.387 189.31 232.435 189.409L233.602 191.833C233.65 191.932 233.728 192.014 233.825 192.066C233.921 192.119 234.032 192.139 234.141 192.125L236.801 191.756C236.91 191.741 237.021 191.762 237.117 191.814C237.214 191.866 237.292 191.947 237.34 192.046C237.387 192.145 237.403 192.257 237.383 192.366C237.364 192.474 237.311 192.573 237.232 192.65L235.296 194.516C235.216 194.592 235.163 194.691 235.143 194.8C235.124 194.908 235.139 195.02 235.187 195.118L236.358 197.542C236.407 197.641 236.423 197.754 236.404 197.863C236.386 197.972 236.333 198.072 236.254 198.149C236.175 198.226 236.073 198.275 235.964 198.291C235.855 198.306 235.744 198.286 235.647 198.234Z" fill="#D00000"/>
<path d="M118.466 149.462C123.317 149.462 127.25 143.01 127.25 135.053C127.25 127.095 123.317 120.644 118.466 120.644C113.615 120.644 109.682 127.095 109.682 135.053C109.682 143.01 113.615 149.462 118.466 149.462Z" fill="#975656"/>
<path d="M166.881 144.3C171.733 144.3 175.666 137.849 175.666 129.891C175.666 121.933 171.733 115.482 166.881 115.482C162.03 115.482 158.097 121.933 158.097 129.891C158.097 137.849 162.03 144.3 166.881 144.3Z" fill="#975656"/>
<path d="M247.837 155.786L247.05 172.766L75.406 190.482L0.213623 156.099V139.571L75.406 172.519L247.837 155.786Z" fill="white"/>
<path opacity="0.1" d="M75.406 172.519V190.482L0.213623 156.099V139.571L75.406 172.519Z" fill="black"/>
</g>
<defs>
<clipPath id="clip0">
<rect width="250" height="260" fill="white"/>
</clipPath>
</defs>
</svg>
