<svg width="453" height="276" viewBox="0 0 453 276" fill="none" xmlns="http://www.w3.org/2000/svg">
<path d="M232.97 267.883C291.971 267.883 339.8 219.784 339.8 160.452C339.8 101.119 291.971 53.0204 232.97 53.0204C173.969 53.0204 126.14 101.119 126.14 160.452C126.14 219.784 173.969 267.883 232.97 267.883Z" fill="#3F3D56"/>
<path d="M232.97 258.989C287.086 258.989 330.957 214.873 330.957 160.452C330.957 106.031 287.086 61.9137 232.97 61.9137C178.853 61.9137 134.983 106.031 134.983 160.452C134.983 214.873 178.853 258.989 232.97 258.989Z" fill="white"/>
<path d="M232.616 173.969C239.845 173.969 245.705 168.076 245.705 160.807C245.705 153.538 239.845 147.645 232.616 147.645C225.388 147.645 219.528 153.538 219.528 160.807C219.528 168.076 225.388 173.969 232.616 173.969Z" fill="#3F3D56"/>
<path d="M235.446 66.894H229.786V77.566H235.446V66.894Z" fill="#3F3D56"/>
<path d="M235.446 244.049H229.786V254.721H235.446V244.049Z" fill="#3F3D56"/>
<path d="M149.84 163.653V157.961H139.228V163.653H149.84Z" fill="#3F3D56"/>
<path d="M326.004 163.653V157.961H315.392V163.653H326.004Z" fill="#3F3D56"/>
<path d="M228.843 166.521L233.68 155.399L294.288 189.155L228.843 166.521Z" fill="#3F3D56"/>
<path d="M246.766 27.052H219.174V59.0679H246.766V27.052Z" fill="#3F3D56"/>
<path d="M232.97 35.9453C250.553 35.9453 264.807 31.9636 264.807 27.052C264.807 22.1403 250.553 18.1587 232.97 18.1587C215.387 18.1587 201.133 22.1403 201.133 27.052C201.133 31.9636 215.387 35.9453 232.97 35.9453Z" fill="#3F3D56"/>
</svg>
